<?xml version="1.0" encoding="UTF-8" standalone="no"?>
<svg
   width="250"
   height="250"
   viewBox="0 0 250 250"
   fill="none"
   version="1.1"
   id="svg18"
   sodipodi:docname="logorpb.svg"
   xml:space="preserve"
   inkscape:version="1.4.2 (f4327f4, 2025-05-13)"
   xmlns:inkscape="http://www.inkscape.org/namespaces/inkscape"
   xmlns:sodipodi="http://sodipodi.sourceforge.net/DTD/sodipodi-0.dtd"
   xmlns="http://www.w3.org/2000/svg"
   xmlns:svg="http://www.w3.org/2000/svg"><sodipodi:namedview
     id="namedview18"
     pagecolor="#ffffff"
     bordercolor="#000000"
     borderopacity="0.25"
     inkscape:showpageshadow="2"
     inkscape:pageopacity="0.0"
     inkscape:pagecheckerboard="0"
     inkscape:deskcolor="#d1d1d1"
     inkscape:zoom="2.2995113"
     inkscape:cx="90.454004"
     inkscape:cy="161.12119"
     inkscape:window-width="1920"
     inkscape:window-height="1094"
     inkscape:window-x="-11"
     inkscape:window-y="-11"
     inkscape:window-maximized="1"
     inkscape:current-layer="g22" /><defs
     id="defs18"><linearGradient
       id="paint0_linear_1246_2424"
       x1="71.7011"
       y1="168.006"
       x2="93.7219"
       y2="202.09"
       gradientUnits="userSpaceOnUse"><stop
         stop-color="#595959"
         id="stop14" /><stop
         offset="0.11"
         stop-color="#655C5A"
         id="stop15" /><stop
         offset="0.31"
         stop-color="#88645D"
         id="stop16" /><stop
         offset="0.59"
         stop-color="#C17262"
         id="stop17" /><stop
         offset="0.71"
         stop-color="#E17B65"
         id="stop18" /></linearGradient><linearGradient
       id="paint0_linear_1246_2424-1"
       x1="71.7011"
       y1="168.006"
       x2="93.7219"
       y2="202.09"
       gradientUnits="userSpaceOnUse"><stop
         stop-color="#595959"
         id="stop14-4" /><stop
         offset="0.11"
         stop-color="#655C5A"
         id="stop15-2" /><stop
         offset="0.31"
         stop-color="#88645D"
         id="stop16-3" /><stop
         offset="0.59"
         stop-color="#C17262"
         id="stop17-2" /><stop
         offset="0.71"
         stop-color="#E17B65"
         id="stop18-2" /></linearGradient><linearGradient
       id="paint0_linear_1246_2424-2"
       x1="71.7011"
       y1="168.006"
       x2="93.7219"
       y2="202.09"
       gradientUnits="userSpaceOnUse"
       gradientTransform="translate(-473.59114,-67.183988)"><stop
         stop-color="#595959"
         id="stop28" /><stop
         offset="0.11"
         stop-color="#655C5A"
         id="stop29" /><stop
         offset="0.31"
         stop-color="#88645D"
         id="stop30" /><stop
         offset="0.59"
         stop-color="#C17262"
         id="stop31" /><stop
         offset="0.71"
         stop-color="#E17B65"
         id="stop32" /></linearGradient></defs><g
     id="g22"
     transform="matrix(0.73125152,0,0,0.73125152,379.94916,83.159365)"><path
       d="m -465.15114,119.34601 90.18,-108.549998 4.37,3.68 z"
       fill="none"
       stroke="#ffffff"
       stroke-width="12"
       stroke-linecap="round"
       stroke-linejoin="round"
       id="path1-1" /><path
       d="m -237.31114,-5.0939875 -137.7,154.7199975 4.63,-6.8 136.7,-144.2299975 z"
       fill="none"
       stroke="#ffffff"
       stroke-width="12"
       stroke-linecap="round"
       stroke-linejoin="round"
       id="path3-85" /><path
       d="m -345.29114,80.836012 c -6.02,0 -8.53,4.88 -8.53,8.74 0,5.3 3.92,8.71 8.36,8.71 5.79,0 8.38,-4.96 8.38,-8.2 0,-5.04 -3.77,-9.25 -8.21,-9.25 z m -0.17,12.99 c -2.59,0 -3.73,-2.25 -3.73,-4.08 0,-2.17 1.32,-4.43 3.9,-4.43 2.41,0 3.99,2.42 3.99,4.51 0,2.01 -1.66,4 -4.16,4 z"
       fill="none"
       stroke="#ffffff"
       stroke-width="12"
       stroke-linecap="round"
       stroke-linejoin="round"
       id="path13-3" /><path
       d="m -322.31114,102.82601 c -6.42,0 -8.92,5.87 -8.92,8.75 0,5.39 4.22,8.36 8.49,8.19 6.11,-0.17 8.96,-5.04 8.96,-8.53 0,-4.54 -3.76,-8.41 -8.53,-8.41 z m -0.34,12.31 c -2.67,0 -3.89,-2 -3.89,-3.81 0,-2.17 1.57,-4.09 3.89,-4.09 2.67,0 4.25,2.34 4.25,4.17 0,1.82 -1.58,3.73 -4.25,3.73 z"
       fill="none"
       stroke="#ffffff"
       stroke-width="12"
       stroke-linecap="round"
       stroke-linejoin="round"
       id="path15" /><path
       d="m -279.68114,74.826012 c -6.03,0 -7,5.61 -7,7.1 0,5.53 3.85,7.86 7.25,7.86 5.87,0 6.76,-5.04 6.76,-7.55 0,-4.35 -3.14,-7.41 -7.01,-7.41 z m 0,10.97 c -2.5,0 -3.23,-2.25 -3.23,-3.62 0,-1.83 1.07,-3.65 3.14,-3.65 2.33,0 3.4,2.08 3.4,3.74 0,1.57 -1.07,3.53 -3.31,3.53 z"
       fill="none"
       stroke="#ffffff"
       stroke-width="12"
       stroke-linecap="round"
       stroke-linejoin="round"
       id="path25" /><path
       d="m -403.49114,98.026012 -4.44,4.689998 32.88,46.74 3.68,-5.53 z"
       fill="none"
       stroke="#ffffff"
       stroke-width="12"
       stroke-linecap="round"
       stroke-linejoin="round"
       id="path19" /><path
       d="m -237.88114,-35.183988 -60.95,67.07 -0.34,9.79 65.49,-72.24 z"
       fill="none"
       stroke="#ffffff"
       stroke-width="12"
       stroke-linecap="round"
       stroke-linejoin="round"
       id="path17" /><path
       d="m -260.03114,91.866012 c -5.14,0.9 -6.64,5.02 -6.21,8.429998 0.51,4.12 3.74,5.78 6.8,5.69 5.06,-0.08 6.88,-4.2 6.63,-7.079998 -0.34,-4.36 -3.57,-7.68 -7.22,-7.04 z m 0.17,10.559998 c -2.33,-0.25 -2.9,-2.25 -2.81,-3.689998 0.09,-1.83 1.4,-3.4 3.06,-3.31 2.16,0.17 3.14,2.17 3.05,3.74 -0.08,1.659998 -1.31,3.489998 -3.3,3.259998 z"
       fill="none"
       stroke="#ffffff"
       stroke-width="12"
       stroke-linecap="round"
       stroke-linejoin="round"
       id="path27" /><path
       d="m -378.77114,15.726012 3.85,-3.77 47.51,47.05 -3.06,3.87 z"
       fill="none"
       stroke="#ffffff"
       stroke-width="12"
       stroke-linecap="round"
       stroke-linejoin="round"
       id="path21" /><path
       d="m -312.37114,-20.103988 v 6.31 h 27.77 v -6.31 z"
       fill="none"
       stroke="#ffffff"
       stroke-width="12"
       stroke-linecap="round"
       stroke-linejoin="round"
       id="path5-6" /><path
       d="m -312.37114,-20.103988 v 6.31 h 27.77 v -6.31 z"
       fill="#216a92"
       id="path6-1" /><path
       d="m -312.67114,-7.7239875 v 6.31 h 27.78 v -6.31 z"
       fill="none"
       stroke="#ffffff"
       stroke-width="12"
       stroke-linecap="round"
       stroke-linejoin="round"
       id="path7-8" /><path
       d="m -312.67114,-7.7239875 v 6.31 h 27.78 v -6.31 z"
       fill="#216a92"
       id="path8-9" /><path
       d="m -250.51114,62.826012 c 9.38,-5.79 14.11,-15.15 13.86,-24.85 -0.36,-13.38 -9.72,-26.98 -27.19,-26.98 h -39.33 V 119.50601 h 40.92 c 17.47,0 30.09,-13.78 30.09,-28.719998 0,-11.16 -6.59,-23 -18.35,-27.96 z m -46.45,-45.77 h 33.12 c 13.24,0 21.07,10.67 21.33,21.09 0.25,11.44 -8.26,22.28 -21.33,22.28 h -33.12 z m 34.71,96.669998 h -34.71 V 65.956012 h 33.12 c 14.69,0 25.91,12.77 25.91,24.83 0,11.749998 -10.14,22.939998 -24.32,22.939998 z"
       fill="none"
       stroke="#ffffff"
       stroke-width="12"
       stroke-linecap="round"
       stroke-linejoin="round"
       id="path9-2" /><path
       d="m -250.51114,62.826012 c 9.38,-5.79 14.11,-15.15 13.86,-24.85 -0.36,-13.38 -9.72,-26.98 -27.19,-26.98 h -39.33 V 119.50601 h 40.92 c 17.47,0 30.09,-13.78 30.09,-28.719998 0,-11.16 -6.59,-23 -18.35,-27.96 z m -46.45,-45.77 h 33.12 c 13.24,0 21.07,10.67 21.33,21.09 0.25,11.44 -8.26,22.28 -21.33,22.28 h -33.12 z m 34.71,96.669998 h -34.71 V 65.956012 h 33.12 c 14.69,0 25.91,12.77 25.91,24.83 0,11.749998 -10.14,22.939998 -24.32,22.939998 z"
       fill="#216a92"
       id="path10-7" /><path
       d="m -346.43114,10.826012 h -36.13 V 119.34601 h -82.42 V 10.746012 h 38.67 c 18.2,0 30.58,14.94 30.58,31.74 0,14.06 -9.8,27.36 -23.53,30.25 l 15.69,21.76 80.35,-93.5999995 4.29,4.69 -86.6,97.3399975 -20.44,-30.099998 h -33.86 v 40.559998 h 77.61 V 16.526012 h 35.79 c 15.61,0 25.62,13.13 25.62,26.21 0,12.5 -10.01,24.99 -25.62,24.99 h -30.9 v 5.7 h 30.9 c 18.85,0 31.36,-15.52 31.36,-30.69 0,-15.51 -11.84,-31.91 -31.36,-31.91 z m -113.4,56.9 h 31.15 l -31.15,-44.6 z m 3.06,-50.67 34.07,50.17 c 12.87,-1.8 21.55,-13.33 21.55,-24.74 0,-12.91 -10.01,-25.7 -25.16,-25.7 z"
       fill="none"
       stroke="#ffffff"
       stroke-width="12"
       stroke-linecap="round"
       stroke-linejoin="round"
       id="path11-9" /><path
       d="m -346.43114,10.826012 h -36.13 V 119.34601 h -82.42 V 10.746012 h 38.67 c 18.2,0 30.58,14.94 30.58,31.74 0,14.06 -9.8,27.36 -23.53,30.25 l 15.69,21.76 80.35,-93.5999995 4.29,4.69 -86.6,97.3399975 -20.44,-30.099998 h -33.86 v 40.559998 h 77.61 V 16.526012 h 35.79 c 15.61,0 25.62,13.13 25.62,26.21 0,12.5 -10.01,24.99 -25.62,24.99 h -30.9 v 5.7 h 30.9 c 18.85,0 31.36,-15.52 31.36,-30.69 0,-15.51 -11.84,-31.91 -31.36,-31.91 z m -113.4,56.9 h 31.15 l -31.15,-44.6 z m 3.06,-50.67 34.07,50.17 c 12.87,-1.8 21.55,-13.33 21.55,-24.74 0,-12.91 -10.01,-25.7 -25.16,-25.7 z"
       fill="#216a92"
       id="path12-54" /><path
       d="m -345.29114,80.836012 c -6.02,0 -8.53,4.88 -8.53,8.74 0,5.3 3.92,8.71 8.36,8.71 5.79,0 8.38,-4.96 8.38,-8.2 0,-5.04 -3.77,-9.25 -8.21,-9.25 z m -0.17,12.99 c -2.59,0 -3.73,-2.25 -3.73,-4.08 0,-2.17 1.32,-4.43 3.9,-4.43 2.41,0 3.99,2.42 3.99,4.51 0,2.01 -1.66,4 -4.16,4 z"
       fill="#216a92"
       id="path14-1" /><path
       d="m -322.31114,102.82601 c -6.42,0 -8.92,5.87 -8.92,8.75 0,5.39 4.22,8.36 8.49,8.19 6.11,-0.17 8.96,-5.04 8.96,-8.53 0,-4.54 -3.76,-8.41 -8.53,-8.41 z m -0.34,12.31 c -2.67,0 -3.89,-2 -3.89,-3.81 0,-2.17 1.57,-4.09 3.89,-4.09 2.67,0 4.25,2.34 4.25,4.17 0,1.82 -1.58,3.73 -4.25,3.73 z"
       fill="#216a92"
       id="path16" /><path
       d="m -465.15114,119.34601 90.18,-108.549998 4.37,3.68 z"
       fill="#e17f32"
       id="path2-6" /><path
       d="m -237.88114,-35.183988 -60.95,67.07 -0.34,9.79 65.49,-72.24 z"
       fill="#216a92"
       id="path18" /><path
       d="m -237.31114,-5.0939875 -137.7,154.7199975 4.63,-6.8 136.7,-144.2299975 z"
       fill="#e17f32"
       id="path4-7" /><path
       d="m -403.49114,98.026012 -4.44,4.689998 32.88,46.74 3.68,-5.53 z"
       fill="url(#paint0_linear_1246_2424)"
       id="path20"
       style="fill:url(#paint0_linear_1246_2424-2)" /><path
       d="m -378.77114,15.726012 3.85,-3.77 47.51,47.05 -3.06,3.87 z"
       fill="#e17f32"
       id="path22" /><path
       d="m -283.54114,103.73601 23.93,-28.909998 3.68,3.06 -24.18,28.349998 z"
       fill="none"
       stroke="#ffffff"
       stroke-width="12"
       stroke-linecap="round"
       stroke-linejoin="round"
       id="path23" /><path
       d="m -283.54114,103.73601 23.93,-28.909998 3.68,3.06 -24.18,28.349998 z"
       fill="#e17f32"
       id="path24" /><path
       d="m -279.68114,74.826012 c -6.03,0 -7,5.61 -7,7.1 0,5.53 3.85,7.86 7.25,7.86 5.87,0 6.76,-5.04 6.76,-7.55 0,-4.35 -3.14,-7.41 -7.01,-7.41 z m 0,10.97 c -2.5,0 -3.23,-2.25 -3.23,-3.62 0,-1.83 1.07,-3.65 3.14,-3.65 2.33,0 3.4,2.08 3.4,3.74 0,1.57 -1.07,3.53 -3.31,3.53 z"
       fill="#e17f32"
       id="path26" /><path
       d="m -260.03114,91.866012 c -5.14,0.9 -6.64,5.02 -6.21,8.429998 0.51,4.12 3.74,5.78 6.8,5.69 5.06,-0.08 6.88,-4.2 6.63,-7.079998 -0.34,-4.36 -3.57,-7.68 -7.22,-7.04 z m 0.17,10.559998 c -2.33,-0.25 -2.9,-2.25 -2.81,-3.689998 0.09,-1.83 1.4,-3.4 3.06,-3.31 2.16,0.17 3.14,2.17 3.05,3.74 -0.08,1.659998 -1.31,3.489998 -3.3,3.259998 z"
       fill="#e17f32"
       id="path28" /></g></svg>
