<?xml version="1.0" encoding="UTF-8"?>
<!-- Generator: visioncortex VTracer 0.6.4 -->
<svg version="1.1" xmlns="http://www.w3.org/2000/svg" width="2000" height="700">
<path d="M0 0 C1.16 0.6 2.32 1.21 3.52 1.83 C20.3 10.95 34.58 23.54 48 37 C49.11 38.07 49.11 38.07 50.24 39.17 C50.92 39.83 51.61 40.5 52.31 41.19 C53.36 42.2 53.36 42.2 54.43 43.23 C56 45 56 45 56 47 C56.66 47 57.32 47 58 47 C59.61 48.86 61.09 50.72 62.56 52.69 C63 53.27 63.44 53.85 63.89 54.45 C64.8 55.67 65.71 56.9 66.62 58.13 C67.53 59.36 68.44 60.59 69.36 61.81 C70.66 63.53 71.92 65.26 73.19 67 C73.94 68.03 74.7 69.06 75.48 70.12 C77 73 77 73 77.12 75.43 C75.29 79.62 71.67 80.41 67.58 82.02 C66.73 82.37 65.88 82.72 65.01 83.09 C63.21 83.82 61.4 84.55 59.59 85.27 C56.83 86.37 54.09 87.5 51.34 88.64 C49.59 89.36 47.84 90.07 46.08 90.77 C45.26 91.11 44.44 91.45 43.6 91.8 C39.06 93.58 35.83 94.62 31 93 C29.15 90.59 28 89.07 28 86 C27.34 86 26.68 86 26 86 C24.65 84.47 23.37 82.87 22.12 81.25 C20.09 78.6 18.13 76.13 15.74 73.8 C14 72 14 72 14 70 C13.34 70 12.68 70 12 70 C12 69.34 12 68.68 12 68 C11.4 67.73 10.81 67.47 10.19 67.2 C7.93 65.96 6.66 64.77 4.94 62.88 C-22.11 35.2 -64.83 22.48 -102.5 21.75 C-137.14 22.42 -169.87 32.66 -198 53 C-198.81 53.58 -199.63 54.17 -200.47 54.77 C-234.91 80.47 -257.5 119.73 -264.18 162.05 C-269.78 204.58 -258.58 249.09 -232.39 283.23 C-229.91 286.39 -227.35 289.49 -224.75 292.56 C-224.03 293.42 -224.03 293.42 -223.29 294.3 C-220.9 297.05 -218.49 299.49 -215.64 301.78 C-214.77 302.51 -213.9 303.24 -213 304 C-213 304.66 -213 305.32 -213 306 C-212.41 306.27 -211.82 306.53 -211.22 306.8 C-208.94 308.03 -207.38 309.35 -205.5 311.12 C-185.85 328.66 -158.55 339.86 -133 345 C-131.63 345.29 -131.63 345.29 -130.23 345.59 C-102.97 350.82 -74.4 347.65 -48.31 338.62 C-47.57 338.37 -46.83 338.11 -46.07 337.85 C-42.61 336.58 -39.45 335.29 -36.32 333.3 C-24.91 326.4 -13.59 327.03 -0.58 327.13 C1.92 327.13 4.42 327.12 6.91 327.11 C12.34 327.09 17.77 327.09 23.2 327.11 C31.33 327.15 39.46 327.14 47.58 327.13 C61.44 327.1 75.29 327.11 89.15 327.14 C103.18 327.17 117.22 327.18 131.25 327.17 C132.59 327.17 132.59 327.17 133.94 327.17 C138.47 327.17 142.99 327.17 147.51 327.16 C180.24 327.15 212.97 327.16 245.69 327.2 C278.1 327.23 310.51 327.26 342.92 327.26 C344.96 327.26 346.99 327.26 349.03 327.26 C357.2 327.26 365.38 327.26 373.56 327.26 C396.42 327.26 419.27 327.27 442.13 327.27 C443.69 327.27 443.69 327.27 445.28 327.27 C495.91 327.28 546.54 327.32 597.16 327.36 C667.58 327.42 737.99 327.45 808.4 327.46 C810.59 327.46 812.79 327.47 814.98 327.47 C824.82 327.47 834.66 327.47 844.49 327.47 C846.67 327.47 848.85 327.47 851.03 327.47 C856.47 327.47 861.91 327.47 867.35 327.47 C935.5 327.48 1003.66 327.51 1071.81 327.54 C1093.09 327.55 1114.37 327.56 1135.65 327.57 C1178.28 327.58 1220.91 327.6 1263.54 327.64 C1267.13 327.64 1270.73 327.64 1274.32 327.65 C1275.65 327.65 1275.65 327.65 1277 327.65 C1291 327.66 1305.01 327.67 1319.02 327.67 C1332.77 327.67 1346.52 327.68 1360.27 327.7 C1368.35 327.71 1376.42 327.71 1384.5 327.71 C1390.47 327.71 1396.45 327.72 1402.42 327.73 C1404.84 327.73 1407.26 327.73 1409.68 327.73 C1412.93 327.72 1416.19 327.73 1419.44 327.74 C1420.87 327.74 1420.87 327.74 1422.33 327.73 C1423.19 327.74 1424.05 327.74 1424.93 327.75 C1425.68 327.75 1426.42 327.75 1427.18 327.75 C1429 328 1429 328 1431 330 C1431.24 333.04 1431.24 333.04 1431.23 336.91 C1431.23 337.93 1431.23 337.93 1431.23 338.97 C1431.23 340.41 1431.22 341.85 1431.21 343.29 C1431.19 345.49 1431.19 347.7 1431.19 349.9 C1431.15 360.7 1431.15 360.7 1430 363 C1428.77 363 1427.54 363 1426.27 363 C1384.15 363 1342.03 363 1299.91 363 C1299.07 363 1298.22 363 1297.34 363 C1206.43 363 1115.53 363.01 1024.62 363.03 C1022.6 363.03 1020.58 363.03 1018.56 363.03 C976.18 363.05 933.8 363.06 891.42 363.07 C870.13 363.08 848.84 363.09 827.55 363.1 C824.34 363.1 821.13 363.1 817.92 363.1 C768.46 363.12 719.01 363.13 669.55 363.12 C667.95 363.12 667.95 363.12 666.33 363.12 C649.18 363.12 632.03 363.12 614.88 363.12 C565.5 363.12 516.12 363.11 466.73 363.13 C465.72 363.13 464.7 363.13 463.65 363.13 C441.37 363.14 419.08 363.15 396.79 363.16 C387.82 363.17 378.86 363.17 369.89 363.18 C368.91 363.18 367.93 363.18 366.92 363.18 C335.28 363.2 303.65 363.19 272.01 363.18 C240.15 363.17 208.29 363.17 176.43 363.2 C172.03 363.21 167.63 363.21 163.23 363.21 C161.93 363.22 161.93 363.22 160.61 363.22 C146.94 363.23 133.27 363.22 119.6 363.2 C106.16 363.19 92.73 363.19 79.29 363.22 C71.41 363.24 63.53 363.24 55.64 363.21 C49.8 363.2 43.95 363.21 38.11 363.24 C35.75 363.24 33.4 363.24 31.04 363.22 C14.56 362.95 14.56 362.95 0 370 C-1.69 370.88 -3.39 371.74 -5.11 372.56 C-5.94 372.96 -6.77 373.37 -7.62 373.78 C-60.47 398.92 -119.45 403.44 -175 383.84 C-208.31 371.73 -240.61 350.77 -263 323 C-263.9 321.94 -264.79 320.88 -265.69 319.82 C-273.51 310.46 -279.96 300.58 -286 290 C-286.4 289.3 -286.81 288.6 -287.22 287.88 C-298.69 267.86 -305.6 246.14 -310.25 223.62 C-310.41 222.84 -310.58 222.06 -310.75 221.25 C-312.97 209.92 -313.19 198.53 -313.19 187.02 C-313.19 184.77 -313.21 182.51 -313.22 180.26 C-313.26 170.34 -312.49 160.81 -311 151 C-310.86 150.05 -310.72 149.1 -310.57 148.12 C-304.62 110.16 -286.93 76.59 -263 47 C-262.28 46.04 -261.55 45.09 -260.8 44.1 C-260.21 43.41 -259.61 42.71 -259 42 C-258.34 42 -257.68 42 -257 42 C-256.75 41.43 -256.5 40.86 -256.25 40.27 C-254.81 37.65 -253.12 35.85 -251 33.75 C-249.95 32.69 -249.95 32.69 -248.88 31.61 C-247 30 -247 30 -245 30 C-245 29.34 -245 28.68 -245 28 C-213.29 -1.99 -170.1 -20.36 -127 -25 C-126.02 -25.11 -125.04 -25.22 -124.04 -25.34 C-80.23 -29.51 -38.67 -20.4 0 0 Z " fill="#FFFFFF" transform="translate(425,170)"/>
<path d="M0 0 C3.66 0 7.33 -0.02 10.99 -0.05 C25.58 -0.08 39.62 0.86 54 3.32 C54.85 3.46 55.69 3.6 56.56 3.74 C87.34 8.88 116.81 20.19 144 35.32 C144.67 35.68 145.33 36.05 146.02 36.42 C153.67 40.63 160.95 45.16 168 50.32 C168.88 50.94 169.76 51.57 170.67 52.21 C191.52 67.11 211.22 85.08 227 105.32 C227.63 106.06 228.25 106.81 228.9 107.58 C242.84 124.31 254.16 143.54 263.1 163.34 C263.92 165.14 264.77 166.93 265.62 168.72 C274.99 188.4 281.09 209.25 285.5 230.57 C285.67 231.38 285.84 232.2 286.02 233.04 C286.81 237.07 287.31 240.31 286 244.32 C284.48 245.84 283.09 245.48 280.97 245.54 C280.12 245.56 279.26 245.58 278.38 245.61 C277.45 245.63 276.52 245.65 275.57 245.67 C274.14 245.7 274.14 245.7 272.69 245.74 C270.68 245.79 268.67 245.83 266.66 245.87 C263.58 245.94 260.5 246.02 257.41 246.1 C255.46 246.14 253.52 246.19 251.57 246.23 C250.18 246.27 250.18 246.27 248.76 246.3 C247.47 246.33 247.47 246.33 246.16 246.35 C245.02 246.38 245.02 246.38 243.87 246.4 C242 246.32 242 246.32 240 245.32 C239.33 243.13 239.33 243.13 238.74 240.23 C238.4 238.63 238.4 238.63 238.05 237 C237.81 235.85 237.56 234.69 237.31 233.5 C225.91 181.94 196.58 133.17 155 100.32 C154.18 99.64 153.36 98.96 152.51 98.26 C135.87 84.6 116.71 73.86 97 65.32 C96.32 65.02 95.65 64.72 94.95 64.41 C75.3 55.87 54.18 51.08 33 48.32 C31.44 48.06 31.44 48.06 29.84 47.8 C25.41 47.24 21.07 47.12 16.61 47.08 C15.71 47.07 14.81 47.06 13.89 47.05 C-25.1 46.71 -61.75 52.16 -97.16 69.42 C-98.93 70.28 -100.71 71.13 -102.5 71.97 C-115.83 78.4 -128.25 86.32 -140 95.32 C-140.8 95.93 -141.61 96.54 -142.44 97.17 C-148.09 101.57 -153.36 106.32 -158.53 111.28 C-162.59 115.12 -162.59 115.12 -165.26 116.42 C-167.59 117.62 -167.88 118.97 -169 121.32 C-170.55 123.04 -172.14 124.72 -173.75 126.38 C-185.28 138.61 -194.83 152.66 -203 167.32 C-203.55 168.28 -203.55 168.28 -204.1 169.26 C-235.08 224 -241.72 288.77 -226 349.32 C-219.12 373.35 -209.17 396.64 -195 417.32 C-194.35 418.28 -194.35 418.28 -193.68 419.26 C-187.62 428.15 -181.41 436.49 -174 444.32 C-172.87 445.62 -171.74 446.94 -170.62 448.25 C-162.83 457.17 -154.31 465.01 -145 472.32 C-144.03 473.11 -143.05 473.9 -142.05 474.71 C-133.2 481.76 -123.8 487.67 -114 493.32 C-113.3 493.72 -112.61 494.12 -111.89 494.53 C-87.3 508.51 -59.93 517.94 -32 522.32 C-31.25 522.43 -30.51 522.55 -29.74 522.67 C-2.94 526.61 26.68 526.04 53.02 519.73 C56.13 519.08 58.85 518.94 62 519.32 C65.3 522.72 66.86 527.27 68.69 531.57 C70.78 536.41 72.9 541.2 75.34 545.88 C75.71 546.6 76.08 547.31 76.47 548.05 C77.18 549.41 77.91 550.76 78.65 552.1 C80.21 555.06 81.04 556.89 80.72 560.26 C80.48 560.94 80.24 561.62 80 562.32 C67.07 565.55 54.2 568.44 41 570.32 C40.32 570.42 39.64 570.52 38.94 570.63 C11.47 574.76 -16.74 572.86 -44 568.32 C-45.45 568.08 -45.45 568.08 -46.94 567.83 C-90.69 560.37 -131 541.66 -166.82 515.87 C-168.25 514.85 -169.69 513.85 -171.14 512.86 C-172.79 511.72 -174.4 510.53 -176 509.32 C-176 508.66 -176 508 -176 507.32 C-176.9 506.88 -176.9 506.88 -177.81 506.44 C-180 505.32 -180 505.32 -183 503.32 C-183 502.66 -183 502 -183 501.32 C-183.58 501.05 -184.17 500.78 -184.77 500.5 C-187.03 499.3 -188.81 497.98 -190.75 496.32 C-191.36 495.8 -191.98 495.28 -192.61 494.75 C-194 493.32 -194 493.32 -194 491.32 C-194.53 491.12 -195.06 490.92 -195.61 490.72 C-199.09 488.68 -201.5 485.85 -204.19 482.88 C-204.73 482.29 -205.28 481.71 -205.84 481.1 C-209.87 476.7 -209.87 476.7 -211 473.32 C-211.66 473.32 -212.32 473.32 -213 473.32 C-216.59 469.2 -219.75 464.71 -223 460.32 C-223.53 459.6 -224.06 458.89 -224.61 458.16 C-231.06 449.51 -237.13 440.87 -242.31 431.39 C-243.78 428.71 -245.35 426.15 -247 423.57 C-251.01 416.96 -253.9 409.79 -256.95 402.7 C-258.09 400.11 -259.29 397.55 -260.49 394.98 C-263.08 389.3 -265.13 383.5 -267.06 377.57 C-267.58 375.97 -267.58 375.97 -268.11 374.35 C-269.09 371.34 -270.05 368.33 -271 365.32 C-271.22 364.63 -271.44 363.94 -271.67 363.24 C-278.06 343.07 -281.14 320.36 -281.17 299.25 C-281.17 298.22 -281.17 297.19 -281.18 296.13 C-281.18 293.96 -281.19 291.79 -281.19 289.61 C-281.19 286.35 -281.21 283.09 -281.22 279.83 C-281.27 263.41 -280.18 247.56 -276.87 231.44 C-276.56 229.89 -276.56 229.89 -276.23 228.3 C-270.57 201.6 -261.79 176.41 -249 152.32 C-248.6 151.54 -248.19 150.76 -247.77 149.97 C-241.38 137.73 -234.31 126.34 -226 115.32 C-225.54 114.7 -225.07 114.08 -224.59 113.45 C-219.41 106.62 -213.97 99.99 -208.44 93.44 C-207.92 92.83 -207.41 92.21 -206.88 91.58 C-205.63 90.12 -204.32 88.71 -203 87.32 C-202.34 87.32 -201.68 87.32 -201 87.32 C-200.6 86.42 -200.6 86.42 -200.19 85.5 C-199 83.32 -197.9 81.9 -196 80.32 C-195.34 80.32 -194.68 80.32 -194 80.32 C-194 79.66 -194 79 -194 78.32 C-193.34 78.32 -192.68 78.32 -192 78.32 C-192 77.66 -192 77 -192 76.32 C-190.46 74.76 -190.46 74.76 -188.37 73 C-187.65 72.39 -186.92 71.77 -186.17 71.14 C-185.45 70.54 -184.74 69.93 -184 69.32 C-183.41 68.8 -182.81 68.28 -182.2 67.75 C-178.24 64.32 -178.24 64.32 -176 64.32 C-176 63.66 -176 63 -176 62.32 C-174.05 60.69 -174.05 60.69 -171.31 58.75 C-170.31 58.04 -169.31 57.33 -168.28 56.6 C-167.2 55.85 -166.11 55.09 -165 54.32 C-164.45 53.93 -163.91 53.55 -163.35 53.16 C-159.58 50.52 -155.79 47.91 -152 45.32 C-150.79 44.48 -150.79 44.48 -149.56 43.62 C-143.92 39.77 -138.05 36.48 -132 33.32 C-131.12 32.86 -130.24 32.4 -129.34 31.92 C-113.37 23.76 -97.06 16.83 -80 11.32 C-78.85 10.94 -77.7 10.56 -76.51 10.17 C-69.01 7.87 -61.37 6.27 -53.69 4.69 C-52.19 4.38 -52.19 4.38 -50.67 4.07 C-33.72 0.71 -17.24 -0.03 0 0 Z " fill="#FFFFFF" transform="translate(316.999755859375,69.684326171875)"/>
<path d="M0 0 C1.08 0.41 2.16 0.83 3.27 1.25 C4.27 1.67 5.28 2.08 6.31 2.5 C7.2 2.86 8.08 3.22 8.99 3.59 C11 5 11 5 12.04 7.12 C11.98 11.89 8.66 14.27 5.41 17.52 C4.72 18.23 4.03 18.93 3.32 19.66 C1.86 21.15 0.38 22.63 -1.1 24.1 C-3.36 26.36 -5.57 28.66 -7.79 30.96 C-9.22 32.4 -10.65 33.84 -12.09 35.27 C-13.07 36.31 -13.07 36.31 -14.08 37.36 C-18.72 41.88 -18.72 41.88 -22.34 42.23 C-24.64 41.99 -26.77 41.59 -29 41 C-30.23 40.74 -30.23 40.74 -31.49 40.48 C-32.13 40.3 -32.76 40.13 -33.42 39.96 C-38.38 38.8 -43.17 38.66 -48.25 38.69 C-49.17 38.69 -50.09 38.7 -51.04 38.7 C-71.02 39.04 -89.39 47.51 -103.81 61.19 C-118.02 76.19 -125.72 95.1 -126.44 115.81 C-125.88 135.48 -118.45 152.9 -106 168 C-105.24 168.93 -105.24 168.93 -104.47 169.88 C-91.32 184.36 -71.79 191.87 -52.67 193.24 C-38.51 193.54 -26.02 190.93 -13.52 184.21 C-8.51 181.8 -5.09 182.32 -0.04 183.96 C3.35 185.22 6.67 186.59 10 188 C11.9 188.79 13.79 189.58 15.69 190.38 C16.65 190.78 17.6 191.18 18.59 191.6 C25.68 194.51 32.85 197.24 40 200 C40.27 202.23 40.27 202.23 40 205 C38.1 207.24 38.1 207.24 35.62 209.31 C34.41 210.36 34.41 210.36 33.16 211.43 C31 213 31 213 29 213 C29 213.66 29 214.32 29 215 C13.44 227.3 -4.69 235 -24 239 C-25.17 239.24 -26.33 239.49 -27.53 239.74 C-59.31 245.27 -92.98 238.32 -119.67 220.19 C-121.84 218.52 -123.92 216.78 -126 215 C-127.48 213.83 -127.48 213.83 -128.98 212.64 C-134.86 207.97 -134.86 207.97 -137 206 C-137 205.34 -137 204.68 -137 204 C-137.66 204 -138.32 204 -139 204 C-139 203.34 -139 202.68 -139 202 C-139.66 202 -140.32 202 -141 202 C-142.29 200.66 -142.29 200.66 -143.76 198.77 C-144.3 198.08 -144.84 197.38 -145.39 196.67 C-145.96 195.91 -146.54 195.15 -147.12 194.38 C-147.71 193.6 -148.3 192.82 -148.9 192.03 C-163.22 172.77 -173.18 149.27 -174 125 C-174.03 124.36 -174.05 123.72 -174.08 123.06 C-175.36 87.14 -163.85 54.89 -139.36 28.44 C-103.77 -8.86 -47.48 -19.43 0 0 Z " fill="#FFFFFF" transform="translate(372,238)"/>
<path d="M0 0 C1.06 -0 1.06 -0 2.14 -0.01 C4.52 -0.02 6.9 -0.01 9.28 -0 C10.98 -0.01 12.68 -0.01 14.38 -0.02 C19.02 -0.02 23.65 -0.02 28.29 -0.01 C33.14 -0.01 38 -0.01 42.86 -0.02 C51.02 -0.02 59.19 -0.02 67.36 -0.01 C76.78 0 86.19 0 95.61 -0.01 C103.7 -0.02 111.8 -0.02 119.89 -0.02 C124.72 -0.01 129.55 -0.01 134.38 -0.02 C138.94 -0.02 143.49 -0.02 148.04 -0.01 C149.7 -0.01 151.37 -0.01 153.03 -0.01 C170.78 -0.05 187.03 1.06 201.47 12.51 C203.27 14.31 204.22 15.92 205.21 18.25 C205.87 18.25 206.53 18.25 207.21 18.25 C208.43 19.83 208.43 19.83 209.71 21.94 C210.13 22.63 210.56 23.31 210.99 24.02 C217.47 35.91 215.36 51.51 215.34 64.7 C215.34 66.65 215.34 68.6 215.35 70.55 C215.35 74.61 215.35 78.67 215.34 82.72 C215.33 87.93 215.34 93.14 215.34 98.34 C215.35 102.35 215.35 106.37 215.34 110.38 C215.34 112.3 215.34 114.22 215.35 116.14 C215.35 118.81 215.35 121.48 215.34 124.16 C215.34 124.95 215.34 125.75 215.35 126.56 C215.32 132.03 215.32 132.03 214.21 134.25 C200.35 134.25 186.49 134.25 172.21 134.25 C172.17 127.74 172.14 121.23 172.1 114.52 C172.07 110.4 172.04 106.27 172 102.15 C171.95 95.6 171.9 89.06 171.86 82.51 C171.84 77.23 171.8 71.95 171.75 66.68 C171.73 64.66 171.72 62.65 171.71 60.64 C171.7 57.82 171.67 55 171.64 52.18 C171.64 51.34 171.65 50.51 171.65 49.65 C171.57 44.95 171.02 42.19 168.21 38.25 C168.21 37.59 168.21 36.93 168.21 36.25 C166.89 35.57 165.55 34.91 164.21 34.25 C163.15 33.73 163.15 33.73 162.06 33.2 C158.44 32 155.05 32 151.28 32.06 C150.54 32.06 149.79 32.06 149.02 32.07 C146.64 32.08 144.27 32.1 141.9 32.13 C140.28 32.14 138.67 32.15 137.05 32.16 C133.1 32.18 129.16 32.21 125.21 32.25 C125.21 33.49 125.21 34.72 125.22 35.99 C125.24 47.6 125.25 59.21 125.26 70.82 C125.27 76.79 125.27 82.76 125.29 88.73 C125.3 94.49 125.3 100.25 125.3 106 C125.31 108.2 125.31 110.4 125.32 112.6 C125.32 115.68 125.32 118.75 125.32 121.83 C125.33 122.74 125.33 123.66 125.33 124.6 C125.33 125.44 125.33 126.27 125.33 127.13 C125.33 128.23 125.33 128.23 125.33 129.34 C125.21 131.25 125.21 131.25 124.21 134.25 C110.35 134.25 96.49 134.25 82.21 134.25 C81.88 100.59 81.55 66.93 81.21 32.25 C59.43 31.76 59.43 31.76 37.21 31.25 C36.55 30.92 35.89 30.59 35.21 30.25 C34.88 64.57 34.55 98.89 34.21 134.25 C20.35 134.25 6.49 134.25 -7.79 134.25 C-9.47 132.57 -8.92 130.48 -8.92 128.17 C-8.93 127.07 -8.93 125.97 -8.94 124.84 C-8.94 123.62 -8.94 122.4 -8.94 121.15 C-8.94 119.23 -8.94 119.23 -8.95 117.28 C-8.95 113.78 -8.96 110.27 -8.96 106.77 C-8.96 103.84 -8.96 100.92 -8.97 98 C-8.97 91.1 -8.98 84.21 -8.98 77.32 C-8.97 70.2 -8.99 63.08 -9 55.96 C-9.01 49.85 -9.02 43.75 -9.02 37.64 C-9.02 34 -9.02 30.35 -9.03 26.7 C-9.04 22.63 -9.04 18.56 -9.03 14.49 C-9.04 13.27 -9.04 12.06 -9.05 10.81 C-9.05 9.7 -9.04 8.6 -9.04 7.46 C-9.04 6.5 -9.04 5.54 -9.04 4.54 C-8.45 -0.85 -4.44 0 0 0 Z " fill="#FFFFFF" transform="translate(627.7899780273438,336.74603271484375)"/>
<path d="M0 0 C1.05 -0 1.05 -0 2.13 -0.01 C4.49 -0.02 6.85 -0.01 9.22 -0 C10.91 -0.01 12.6 -0.01 14.29 -0.02 C18.89 -0.02 23.5 -0.02 28.1 -0.01 C32.92 -0.01 37.75 -0.01 42.57 -0.02 C50.69 -0.02 58.81 -0.02 66.92 -0.01 C76.28 0 85.63 0 94.98 -0.01 C103.03 -0.02 111.07 -0.02 119.11 -0.02 C123.91 -0.01 128.71 -0.01 133.51 -0.02 C138.03 -0.02 142.56 -0.02 147.08 -0.01 C148.73 -0.01 150.38 -0.01 152.03 -0.01 C171.95 -0.06 189.89 1.34 204.97 15.91 C212.02 23.52 215.02 31.57 214.82 41.84 C214.82 43.35 214.82 43.35 214.82 44.89 C214.82 48.18 214.78 51.47 214.74 54.76 C214.73 57.06 214.73 59.35 214.72 61.65 C214.7 67.66 214.65 73.67 214.6 79.69 C214.55 85.83 214.52 91.98 214.5 98.13 C214.45 110.17 214.36 122.21 214.25 134.25 C208.43 134.28 202.61 134.3 196.79 134.31 C194.81 134.31 192.83 134.32 190.85 134.33 C188.01 134.34 185.16 134.35 182.32 134.35 C180.98 134.36 180.98 134.36 179.62 134.37 C177.5 134.37 175.38 134.32 173.25 134.25 C171.43 132.43 172.12 129.91 172.11 127.48 C172.11 126.24 172.11 126.24 172.11 124.97 C172.11 124.11 172.11 123.24 172.1 122.34 C172.09 120.45 172.09 118.56 172.09 116.66 C172.08 113.67 172.06 110.67 172.04 107.67 C171.99 99.15 171.94 90.63 171.93 82.1 C171.92 76.9 171.89 71.69 171.85 66.48 C171.84 64.5 171.83 62.51 171.83 60.53 C171.83 57.74 171.81 54.96 171.78 52.18 C171.79 51.36 171.8 50.54 171.8 49.7 C171.72 44.43 170.71 41.46 167.25 37.25 C155.09 26.27 143.47 31.8 124.25 31.25 C124.25 65.24 124.25 99.23 124.25 134.25 C110.39 134.25 96.53 134.25 82.25 134.25 C81.92 100.59 81.59 66.93 81.25 32.25 C65.74 31.92 50.23 31.59 34.25 31.25 C34.25 65.24 34.25 99.23 34.25 134.25 C20.39 134.25 6.53 134.25 -7.75 134.25 C-9.02 131.71 -8.87 129.94 -8.88 127.09 C-8.88 126 -8.89 124.9 -8.89 123.78 C-8.89 122.57 -8.89 121.37 -8.89 120.13 C-8.89 118.86 -8.9 117.59 -8.9 116.29 C-8.91 112.82 -8.91 109.34 -8.91 105.87 C-8.91 102.97 -8.92 100.07 -8.92 97.17 C-8.93 90.34 -8.93 83.5 -8.93 76.67 C-8.93 69.61 -8.94 62.55 -8.96 55.5 C-8.97 49.44 -8.97 43.39 -8.97 37.34 C-8.97 33.72 -8.98 30.1 -8.99 26.48 C-9 22.45 -8.99 18.42 -8.99 14.38 C-8.99 13.18 -9 11.97 -9.01 10.73 C-9 9.64 -9 8.54 -8.99 7.42 C-8.99 6.46 -8.99 5.51 -8.99 4.52 C-8.41 -0.84 -4.41 0 0 0 Z " fill="#FFFFFF" transform="translate(1640.7452850341797,336.74603271484375)"/>
<path d="M0 0 C2.87 -0.29 5.53 -0.4 8.4 -0.36 C9.65 -0.36 9.65 -0.36 10.93 -0.36 C12.69 -0.36 14.46 -0.35 16.22 -0.34 C18.92 -0.31 21.62 -0.32 24.33 -0.32 C26.04 -0.32 27.75 -0.31 29.46 -0.3 C30.27 -0.3 31.08 -0.3 31.92 -0.3 C35.79 -0.25 37.71 -0.2 41 2 C41.36 4.18 41.36 4.18 41.34 6.91 C41.34 8.44 41.34 8.44 41.34 10 C41.32 11.11 41.31 12.21 41.29 13.35 C41.29 14.48 41.28 15.61 41.28 16.77 C41.26 20.39 41.23 24.01 41.19 27.62 C41.17 30.07 41.16 32.52 41.15 34.97 C41.11 40.98 41.06 46.99 41 53 C41.75 53 42.49 52.99 43.26 52.99 C50.35 52.95 57.44 52.92 64.53 52.9 C68.17 52.89 71.81 52.87 75.45 52.85 C78.98 52.83 82.51 52.82 86.04 52.81 C88.01 52.8 89.99 52.79 91.96 52.77 C110.62 52.77 126.25 55.6 139.97 68.91 C152.25 82 150.15 98.68 150.13 115.44 C150.13 117.41 150.13 119.38 150.14 121.35 C150.14 125.47 150.14 129.58 150.13 133.69 C150.12 138.96 150.13 144.24 150.13 149.51 C150.14 153.57 150.14 157.64 150.13 161.7 C150.13 163.65 150.13 165.59 150.14 167.54 C150.14 170.25 150.13 172.95 150.13 175.66 C150.13 176.47 150.13 177.27 150.14 178.1 C150.12 181.33 150.03 183.91 149 187 C143.18 187.02 137.36 187.04 131.54 187.05 C129.56 187.06 127.57 187.07 125.59 187.08 C122.75 187.09 119.91 187.09 117.07 187.1 C115.73 187.11 115.73 187.11 114.36 187.11 C112.24 187.11 110.12 187.06 108 187 C105.95 184.95 106.85 180.63 106.84 177.81 C106.84 176.95 106.83 176.09 106.83 175.21 C106.82 173.34 106.81 171.47 106.8 169.6 C106.79 166.63 106.77 163.67 106.75 160.71 C106.69 152.28 106.63 143.85 106.6 135.42 C106.58 130.27 106.54 125.12 106.5 119.97 C106.48 118.01 106.47 116.05 106.47 114.09 C106.47 111.34 106.44 108.59 106.42 105.84 C106.42 105.03 106.42 104.22 106.43 103.38 C106.34 97.86 105.36 93.59 101.5 89.36 C97.13 85.95 94.26 84.89 88.79 84.79 C87.73 84.77 86.67 84.75 85.58 84.73 C84.44 84.72 83.29 84.7 82.11 84.68 C80.94 84.66 79.77 84.64 78.56 84.62 C74.81 84.56 71.06 84.5 67.31 84.44 C64.77 84.39 62.23 84.35 59.69 84.31 C53.46 84.2 47.23 84.1 41 84 C41 85.26 41 86.52 41.01 87.82 C41.03 99.68 41.04 111.54 41.05 123.4 C41.06 129.5 41.06 135.6 41.08 141.7 C41.09 147.58 41.09 153.46 41.09 159.34 C41.1 161.59 41.1 163.84 41.11 166.08 C41.11 169.22 41.11 172.36 41.11 175.5 C41.12 176.44 41.12 177.38 41.12 178.34 C41.12 179.19 41.12 180.05 41.12 180.93 C41.12 181.67 41.12 182.41 41.12 183.18 C41 185 41 185 40 187 C26.47 187 12.94 187 -1 187 C-2.47 184.06 -2.14 181.09 -2.13 177.87 C-2.14 177.13 -2.14 176.38 -2.14 175.62 C-2.15 173.12 -2.15 170.62 -2.15 168.11 C-2.15 166.33 -2.15 164.54 -2.16 162.75 C-2.16 157.88 -2.17 153.01 -2.17 148.14 C-2.17 144.09 -2.17 140.03 -2.18 135.97 C-2.18 126.4 -2.19 116.83 -2.19 107.26 C-2.18 97.37 -2.2 87.48 -2.21 77.6 C-2.22 69.12 -2.23 60.64 -2.23 52.16 C-2.23 47.1 -2.23 42.03 -2.24 36.96 C-2.25 32.2 -2.25 27.43 -2.24 22.67 C-2.24 20.92 -2.25 19.16 -2.25 17.41 C-2.26 15.03 -2.25 12.64 -2.25 10.26 C-2.25 9.56 -2.26 8.86 -2.26 8.14 C-2.24 4.52 -2.07 3.1 0 0 Z " fill="#FFFFFF" transform="translate(1164,284)"/>
<path d="M0 0 C1.27 0.01 1.27 0.01 2.58 0.01 C3.47 0.01 4.36 0.01 5.29 0 C8.26 -0.01 11.23 -0 14.21 0.01 C16.28 0 18.35 0 20.42 -0 C24.77 -0 29.13 0 33.48 0.01 C39.03 0.02 44.58 0.02 50.13 0 C54.41 -0 58.7 -0 62.99 0 C65.03 0 67.07 0 69.11 -0 C89.19 -0.04 106.38 0.73 122.94 13.27 C123.93 13.93 124.92 14.59 125.94 15.27 C125.94 15.93 125.94 16.59 125.94 17.27 C126.93 17.6 127.92 17.93 128.94 18.27 C139.95 30.08 138.35 47.17 138.23 62.1 C138.23 64.19 138.22 66.28 138.22 68.37 C138.21 73.83 138.18 79.28 138.15 84.74 C138.12 90.32 138.1 95.91 138.09 101.49 C138.06 112.42 138 123.34 137.94 134.27 C122.49 134.34 107.03 134.39 91.57 134.43 C84.4 134.44 77.22 134.46 70.04 134.5 C63.78 134.53 57.52 134.55 51.26 134.55 C47.95 134.56 44.64 134.57 41.33 134.59 C37.62 134.61 33.91 134.61 30.21 134.61 C29.12 134.62 28.04 134.63 26.93 134.64 C17.94 134.61 9.52 132.99 1.5 128.77 C0.72 128.37 -0.06 127.97 -0.87 127.55 C-3.09 126.26 -5.11 124.94 -7.06 123.27 C-7.06 122.61 -7.06 121.95 -7.06 121.27 C-7.72 121.27 -8.38 121.27 -9.06 121.27 C-10.71 119.11 -10.71 119.11 -12.56 116.21 C-13.17 115.27 -13.78 114.33 -14.4 113.36 C-19.59 103.69 -19.33 91.57 -17.48 80.94 C-14.61 71.79 -7.64 64.87 -0.06 59.27 C2.23 58.08 2.23 58.08 4.57 57.15 C5.32 56.83 6.08 56.52 6.86 56.2 C17.19 53.09 27.51 52.93 38.2 52.86 C39.85 52.84 41.49 52.82 43.13 52.8 C47.42 52.75 51.71 52.71 56 52.67 C60.39 52.63 64.78 52.58 69.17 52.53 C77.76 52.43 86.35 52.35 94.94 52.27 C94.79 50.82 94.64 49.37 94.48 47.93 C94.4 47.12 94.31 46.31 94.23 45.48 C93.71 41.52 92.43 38.4 89.94 35.27 C83.93 31.08 77.92 30.12 70.72 30.08 C69.88 30.07 69.05 30.07 68.18 30.06 C66.37 30.04 64.55 30.02 62.73 30.01 C59.85 29.99 56.98 29.96 54.11 29.93 C46.97 29.86 39.84 29.8 32.7 29.74 C26.67 29.69 20.64 29.64 14.61 29.58 C11.77 29.55 8.93 29.53 6.09 29.51 C4.36 29.49 2.63 29.48 0.9 29.46 C0.11 29.46 -0.69 29.45 -1.51 29.45 C-6.94 29.38 -6.94 29.38 -8.06 28.27 C-8.31 23.96 -8.24 19.65 -8.25 15.33 C-8.26 14.11 -8.27 12.9 -8.28 11.64 C-8.29 9.9 -8.29 9.9 -8.29 8.12 C-8.29 7.05 -8.3 5.97 -8.3 4.87 C-7.8 -0.47 -4.59 0.03 0 0 Z M28.94 86.27 C26.26 90.29 26.13 93.55 26.94 98.27 C29.79 102.1 32.47 103.8 36.94 105.27 C39.78 105.56 39.78 105.56 42.82 105.51 C44.55 105.52 44.55 105.52 46.33 105.52 C48.18 105.51 48.18 105.51 50.08 105.5 C51.36 105.5 52.64 105.5 53.95 105.5 C56.65 105.5 59.35 105.49 62.04 105.48 C65.51 105.46 68.97 105.46 72.43 105.46 C75.73 105.46 79.03 105.45 82.33 105.44 C83.58 105.44 84.83 105.44 86.11 105.44 C87.26 105.43 88.4 105.42 89.58 105.42 C90.6 105.41 91.61 105.41 92.65 105.4 C94.91 105.53 94.91 105.53 95.94 104.27 C96.03 102.64 96.05 101 96.04 99.36 C96.04 98.37 96.03 97.38 96.03 96.36 C96.02 95.32 96.01 94.28 96 93.21 C96 92.16 95.99 91.12 95.99 90.04 C95.98 87.45 95.96 84.86 95.94 82.27 C88.53 82.18 81.13 82.11 73.72 82.06 C70.28 82.04 66.84 82.01 63.4 81.97 C59.44 81.92 55.47 81.9 51.51 81.88 C49.67 81.85 49.67 81.85 47.8 81.82 C40.87 81.82 34.81 82.25 28.94 86.27 Z " fill="#FFFFFF" transform="translate(879.0586853027344,336.72894287109375)"/>
<path d="M0 0 C1.22 0.01 1.22 0.01 2.46 0.01 C3.29 0.01 4.13 0.01 4.98 0.01 C6.75 0.01 8.51 0.01 10.28 0.02 C12.98 0.03 15.68 0.02 18.38 0 C20.1 0.01 21.81 0.01 23.52 0.01 C24.74 0.01 24.74 0.01 25.97 0 C29.85 0.03 31.76 0.08 35.06 2.28 C35.42 4.45 35.42 4.45 35.4 7.19 C35.4 8.21 35.4 9.23 35.4 10.28 C35.38 11.39 35.37 12.49 35.35 13.63 C35.35 14.76 35.34 15.89 35.34 17.05 C35.32 20.67 35.28 24.29 35.24 27.9 C35.23 30.35 35.22 32.8 35.2 35.25 C35.17 41.26 35.12 47.27 35.06 53.28 C36.17 53.27 37.29 53.27 38.44 53.26 C42.56 53.24 46.69 53.23 50.81 53.22 C52.6 53.22 54.39 53.21 56.17 53.2 C58.74 53.19 61.3 53.18 63.87 53.18 C64.67 53.18 65.47 53.17 66.3 53.16 C68.22 53.16 70.14 53.22 72.06 53.28 C73.06 54.28 73.06 54.28 73.17 57.05 C73.16 58.87 73.16 58.87 73.15 60.72 C73.15 62.68 73.15 62.68 73.14 64.67 C73.14 66.06 73.13 67.45 73.12 68.84 C73.11 70.23 73.11 71.63 73.11 73.02 C73.09 76.44 73.08 79.86 73.06 83.28 C69.88 84.86 66.47 84.4 62.99 84.38 C62.19 84.37 61.39 84.37 60.57 84.37 C58.03 84.37 55.48 84.35 52.93 84.34 C51.21 84.34 49.48 84.33 47.76 84.33 C43.52 84.32 39.29 84.3 35.06 84.28 C35.12 91.57 35.2 98.87 35.29 106.16 C35.34 109.55 35.38 112.93 35.4 116.32 C35.44 120.22 35.49 124.13 35.54 128.03 C35.55 129.23 35.56 130.44 35.56 131.68 C35.7 139.6 36.25 145.79 41.37 152.15 C47.24 156.79 53.64 156.64 60.81 156.84 C62.7 156.9 64.59 156.96 66.48 157.03 C67.73 157.07 67.73 157.07 69 157.1 C71.06 157.28 71.06 157.28 73.06 158.28 C73.06 167.85 73.06 177.42 73.06 187.28 C67.08 187.37 61.11 187.45 55.14 187.5 C53.11 187.52 51.09 187.54 49.06 187.58 C17.05 188.12 17.05 188.12 5.88 178.05 C5.28 177.47 4.68 176.88 4.06 176.28 C3.22 175.59 3.22 175.59 2.36 174.88 C-4.56 168.86 -7.24 160.16 -7.94 151.28 C-8.14 146.21 -8.2 141.13 -8.26 136.06 C-8.28 134.59 -8.3 133.12 -8.32 131.65 C-8.38 127.81 -8.43 123.97 -8.48 120.13 C-8.53 116.21 -8.58 112.28 -8.64 108.35 C-8.74 100.66 -8.85 92.97 -8.94 85.28 C-11.44 84.03 -13.05 84.21 -15.85 84.29 C-16.82 84.3 -17.79 84.32 -18.79 84.34 C-20.85 84.38 -22.9 84.43 -24.96 84.49 C-25.93 84.51 -26.9 84.52 -27.91 84.54 C-28.8 84.56 -29.69 84.58 -30.61 84.6 C-32.94 84.28 -32.94 84.28 -34.74 83.13 C-36.45 80.49 -36.32 78.5 -36.31 75.37 C-36.31 74.21 -36.31 73.06 -36.3 71.87 C-36.29 70.66 -36.27 69.46 -36.26 68.22 C-36.26 67.01 -36.26 65.8 -36.27 64.55 C-36.21 55.54 -36.21 55.54 -33.94 53.28 C-31.42 52.96 -31.42 52.96 -28.28 52.86 C-26.76 52.81 -26.76 52.81 -25.22 52.76 C-23.93 52.72 -22.64 52.69 -21.32 52.65 C-19.11 52.59 -16.9 52.52 -14.7 52.45 C-12.78 52.39 -10.86 52.34 -8.94 52.28 C-8.94 51.66 -8.93 51.03 -8.92 50.39 C-8.83 43.94 -8.73 37.48 -8.63 31.03 C-8.59 28.61 -8.55 26.2 -8.52 23.79 C-8.48 20.33 -8.42 16.87 -8.36 13.41 C-8.34 11.79 -8.34 11.79 -8.32 10.13 C-8.3 9.13 -8.28 8.13 -8.26 7.09 C-8.25 6.21 -8.24 5.33 -8.22 4.42 C-7.58 -0.51 -4.17 0.04 0 0 Z " fill="#FFFFFF" transform="translate(1070.943344116211,283.72210693359375)"/>
<path d="M0 0 C0.86 0 1.73 0 2.62 0.01 C3.5 0.01 4.38 0 5.29 0 C7.16 0 9.03 0 10.89 0.01 C13.76 0.01 16.63 0.01 19.49 0 C21.31 0 23.12 0 24.93 0.01 C26.22 0 26.22 0 27.54 0 C33.61 0.02 33.61 0.02 35.84 1.14 C35.84 1.83 35.85 2.52 35.85 3.23 C35.93 20.03 36.02 36.83 36.13 53.63 C36.18 61.76 36.22 69.88 36.26 78.01 C36.29 85.09 36.33 92.17 36.38 99.25 C36.41 103 36.43 106.75 36.44 110.5 C36.46 114.69 36.49 118.88 36.52 123.07 C36.52 124.31 36.52 125.55 36.53 126.83 C36.54 127.97 36.55 129.11 36.56 130.29 C36.57 131.28 36.57 132.27 36.58 133.29 C37 137.9 37.88 141.19 41.2 144.47 C45.99 147.28 51.71 146.78 57.09 146.83 C59.26 146.87 61.43 146.91 63.6 146.96 C64.56 146.97 65.52 146.99 66.5 147 C68.84 147.14 68.84 147.14 70.84 148.14 C70.84 160.68 70.84 173.22 70.84 186.14 C66.41 188.35 60.39 187.37 55.47 187.38 C53.27 187.39 51.08 187.42 48.88 187.45 C34.26 187.56 20.58 185.93 7.84 178.14 C7.23 177.77 6.61 177.4 5.98 177.03 C-2.05 171.33 -4.73 161.07 -6.57 151.97 C-7.54 145.67 -7.56 139.43 -7.52 133.07 C-7.52 131.62 -7.52 130.17 -7.52 128.73 C-7.53 124.84 -7.51 120.95 -7.5 117.07 C-7.48 112.99 -7.48 108.91 -7.48 104.83 C-7.48 98 -7.46 91.17 -7.44 84.33 C-7.41 75.55 -7.4 66.77 -7.4 57.99 C-7.39 50.44 -7.38 42.88 -7.37 35.33 C-7.36 32.9 -7.36 30.47 -7.36 28.04 C-7.35 24.24 -7.34 20.44 -7.33 16.64 C-7.32 15.24 -7.32 13.84 -7.32 12.44 C-7.32 10.54 -7.31 8.65 -7.3 6.75 C-7.3 5.68 -7.3 4.62 -7.29 3.52 C-7.03 -1.23 -4.06 0.02 0 0 Z " fill="#FFFFFF" transform="translate(467.16062927246094,284.8610534667969)"/>
<path d="M0 0 C1.11 -0.01 1.11 -0.01 2.24 -0.02 C4.69 -0.03 7.15 -0.04 9.6 -0.04 C11.31 -0.05 13.03 -0.05 14.74 -0.06 C18.34 -0.07 21.94 -0.08 25.54 -0.08 C30.12 -0.08 34.7 -0.11 39.28 -0.14 C42.82 -0.16 46.37 -0.16 49.91 -0.16 C51.6 -0.17 53.29 -0.17 54.97 -0.19 C71.25 -0.31 87.27 0.81 99.77 12.6 C105.75 19.08 107.96 25.1 107.97 33.86 C107.97 35.15 107.97 36.44 107.97 37.77 C107.97 38.44 107.97 39.11 107.97 39.8 C107.96 41.85 107.97 43.91 107.97 45.96 C107.97 47.25 107.97 48.53 107.97 49.86 C107.97 51.04 107.97 52.23 107.96 53.45 C107.83 56.16 107.83 56.16 106.83 57.16 C103.89 57.26 100.97 57.3 98.02 57.29 C97.14 57.29 96.25 57.3 95.34 57.3 C93.47 57.3 91.6 57.3 89.72 57.29 C86.85 57.29 83.97 57.29 81.09 57.3 C79.28 57.3 77.46 57.3 75.65 57.29 C74.78 57.3 73.91 57.3 73.02 57.3 C66.95 57.28 66.95 57.28 65.83 56.16 C65.7 52.67 65.59 49.18 65.58 45.68 C65.39 39.85 64.1 37.19 59.83 33.16 C53.89 30.98 48.26 31.08 42.01 31.12 C41.22 31.12 40.43 31.13 39.62 31.13 C37.69 31.14 35.76 31.15 33.83 31.16 C33.84 32.44 33.84 33.71 33.84 35.03 C33.86 47.02 33.88 59.01 33.89 71.01 C33.89 77.17 33.9 83.34 33.91 89.51 C33.92 95.45 33.93 101.4 33.93 107.34 C33.93 109.62 33.94 111.89 33.94 114.17 C33.95 117.34 33.95 120.51 33.95 123.68 C33.95 124.63 33.96 125.58 33.96 126.56 C33.95 133.05 33.95 133.05 32.83 134.16 C18.97 134.16 5.11 134.16 -9.17 134.16 C-9.17 90.27 -9.17 46.38 -9.17 1.16 C-6.22 -0.31 -3.23 0.01 0 0 Z " fill="#FFFFFF" transform="translate(1506.1650390625,336.8388671875)"/>
<path d="M0 0 C0.88 -0 1.76 -0.01 2.67 -0.01 C4.54 -0.02 6.41 -0.02 8.28 -0.02 C11.14 -0.02 14.01 -0.04 16.88 -0.06 C18.69 -0.06 20.5 -0.06 22.31 -0.06 C23.6 -0.07 23.6 -0.07 24.92 -0.08 C30.99 -0.06 30.99 -0.06 33.22 2.17 C33.47 4.46 33.47 4.46 33.47 7.38 C33.47 8.48 33.48 9.58 33.48 10.72 C33.48 11.94 33.47 13.15 33.47 14.4 C33.47 15.68 33.47 16.96 33.47 18.27 C33.48 21.78 33.47 25.28 33.46 28.79 C33.45 32.45 33.45 36.12 33.45 39.78 C33.45 45.93 33.44 52.08 33.43 58.23 C33.41 65.35 33.41 72.47 33.41 79.6 C33.41 86.44 33.4 93.28 33.4 100.12 C33.39 103.03 33.39 105.95 33.39 108.86 C33.39 112.93 33.38 116.99 33.37 121.06 C33.37 122.28 33.37 123.5 33.37 124.75 C33.37 125.85 33.36 126.95 33.36 128.09 C33.35 129.05 33.35 130.01 33.35 131 C33.22 133.17 33.22 133.17 32.22 134.17 C29.2 134.27 26.21 134.31 23.19 134.3 C22.29 134.3 21.38 134.3 20.45 134.3 C18.53 134.3 16.61 134.3 14.69 134.3 C11.74 134.29 8.79 134.3 5.84 134.3 C3.98 134.3 2.11 134.3 0.25 134.3 C-1.08 134.3 -1.08 134.3 -2.44 134.31 C-8.66 134.28 -8.66 134.28 -9.78 133.17 C-9.88 131.46 -9.9 129.75 -9.9 128.04 C-9.91 126.93 -9.91 125.82 -9.91 124.68 C-9.91 123.45 -9.91 122.22 -9.91 120.95 C-9.91 119.67 -9.91 118.38 -9.91 117.06 C-9.92 113.52 -9.91 109.98 -9.91 106.44 C-9.91 102.75 -9.91 99.06 -9.91 95.36 C-9.91 89.16 -9.91 82.96 -9.91 76.75 C-9.9 69.57 -9.9 62.39 -9.91 55.2 C-9.91 49.05 -9.91 42.89 -9.91 36.73 C-9.91 33.05 -9.91 29.37 -9.91 25.69 C-9.92 21.59 -9.91 17.48 -9.91 13.38 C-9.91 12.15 -9.91 10.92 -9.91 9.66 C-9.91 8.55 -9.91 7.44 -9.9 6.29 C-9.9 5.32 -9.9 4.35 -9.9 3.35 C-9.61 -1.79 -3.97 0.01 0 0 Z " fill="#FFFFFF" transform="translate(568.77734375,336.83203125)"/>
<path d="M0 0 C0.51 0.5 1.02 1 1.55 1.52 C1.55 2.18 1.55 2.84 1.55 3.52 C2.21 3.52 2.87 3.52 3.55 3.52 C13.61 13.78 18.41 28.16 18.98 42.33 C18.49 58.54 12.37 72.3 1.26 84 C-11.39 95.72 -26.24 100.26 -43.16 99.83 C-49.3 99.51 -54.78 97.82 -60.45 95.52 C-61.33 95.17 -62.22 94.81 -63.12 94.45 C-70 91.38 -75.16 86.8 -80.45 81.52 C-81.03 80.95 -81.61 80.38 -82.2 79.8 C-92.65 68.67 -95.82 54.02 -95.66 39.27 C-95.06 28.5 -92.27 19.58 -86.45 10.52 C-85.98 9.78 -85.51 9.04 -85.02 8.28 C-83.91 6.64 -82.69 5.07 -81.45 3.52 C-80.79 3.52 -80.13 3.52 -79.45 3.52 C-79.45 2.86 -79.45 2.2 -79.45 1.52 C-56.08 -19.58 -24.42 -19.23 0 0 Z M-62.45 8.52 C-62.45 9.18 -62.45 9.84 -62.45 10.52 C-63.58 10.89 -63.58 10.89 -64.73 11.27 C-70.92 14.11 -74.35 20.74 -76.83 26.83 C-80.42 36.52 -81.03 47.29 -77.55 57.15 C-72.53 67.97 -63.7 77.23 -52.45 81.52 C-42.59 84.8 -32.03 84.73 -22.45 80.52 C-11.11 74.51 -3.88 66.67 0.63 54.61 C3.97 43.3 2.42 32.66 -2.61 22.08 C-3.49 20.52 -4.46 19.01 -5.45 17.52 C-6.11 17.52 -6.77 17.52 -7.45 17.52 C-7.95 16.03 -7.95 16.03 -8.45 14.52 C-9.11 14.52 -9.77 14.52 -10.45 14.52 C-10.45 13.86 -10.45 13.2 -10.45 12.52 C-11.11 12.52 -11.77 12.52 -12.45 12.52 C-12.45 11.86 -12.45 11.2 -12.45 10.52 C-20.48 3.75 -30.78 0.79 -41.1 1.12 C-48.62 2.01 -56.2 4.14 -62.45 8.52 Z " fill="#FFFFFF" transform="translate(1938.453125,238.484375)"/>
<path d="M0 0 C19.02 -0.02 38.04 -0.04 57.06 -0.05 C65.89 -0.06 74.72 -0.06 83.55 -0.08 C91.24 -0.09 98.93 -0.09 106.63 -0.09 C110.7 -0.1 114.78 -0.1 118.86 -0.11 C122.69 -0.11 126.52 -0.11 130.35 -0.11 C131.76 -0.11 133.17 -0.12 134.58 -0.12 C136.5 -0.12 138.42 -0.12 140.34 -0.12 C141.41 -0.12 142.49 -0.12 143.6 -0.12 C146 0 146 0 147 1 C147.09 3 147.11 5 147.1 7 C147.09 8.22 147.09 9.43 147.09 10.69 C147.08 11.96 147.07 13.24 147.06 14.56 C147.06 15.85 147.05 17.13 147.05 18.45 C147.04 21.63 147.02 24.82 147 28 C144.33 29.33 142.3 29.13 139.31 29.13 C138.09 29.14 136.88 29.14 135.63 29.15 C134.29 29.15 132.94 29.15 131.59 29.15 C130.17 29.15 128.75 29.15 127.34 29.16 C123.49 29.16 119.64 29.17 115.79 29.17 C112.57 29.17 109.36 29.17 106.15 29.18 C98.58 29.18 91.01 29.19 83.44 29.19 C75.61 29.18 67.79 29.2 59.97 29.21 C53.26 29.22 46.56 29.23 39.85 29.23 C35.84 29.23 31.83 29.23 27.82 29.24 C24.05 29.25 20.28 29.25 16.51 29.24 C15.13 29.24 13.74 29.25 12.35 29.25 C10.47 29.26 8.58 29.25 6.69 29.25 C5.64 29.25 4.58 29.25 3.49 29.25 C1 29 1 29 -1 27 C-1.24 24.51 -1.24 24.51 -1.23 21.41 C-1.23 20.29 -1.23 19.18 -1.22 18.04 C-1.21 16.87 -1.2 15.7 -1.19 14.5 C-1.19 13.33 -1.19 12.17 -1.19 10.96 C-1.14 2.28 -1.14 2.28 0 0 Z " fill="#FFFFFF" transform="translate(1332,390)"/>
<path d="M0 0 C1.07 0 2.13 0 3.23 0.01 C4.46 0 5.68 0 6.94 -0 C8.3 0 9.66 0.01 11.03 0.02 C12.46 0.02 13.88 0.02 15.31 0.02 C19.2 0.02 23.09 0.03 26.97 0.04 C31.03 0.06 35.09 0.06 39.15 0.06 C46.84 0.07 54.53 0.08 62.21 0.1 C70.97 0.12 79.72 0.14 88.47 0.15 C106.48 0.17 124.48 0.2 142.49 0.25 C143.84 2.95 143.62 5.07 143.62 8.09 C143.62 9.26 143.62 10.42 143.63 11.62 C143.62 12.83 143.62 14.05 143.61 15.31 C143.62 16.53 143.62 17.75 143.63 19.01 C143.62 20.75 143.62 20.75 143.62 22.53 C143.62 23.6 143.62 24.67 143.62 25.78 C143.49 28.25 143.49 28.25 142.49 29.25 C140.62 29.35 138.75 29.38 136.88 29.38 C135.05 29.39 135.05 29.39 133.19 29.39 C131.82 29.39 130.46 29.39 129.1 29.39 C127.67 29.39 126.25 29.4 124.82 29.4 C120.94 29.41 117.06 29.41 113.17 29.41 C109.94 29.41 106.7 29.42 103.47 29.42 C95.84 29.43 88.2 29.43 80.57 29.43 C72.69 29.43 64.81 29.44 56.92 29.46 C50.16 29.47 43.41 29.48 36.65 29.47 C32.61 29.47 28.56 29.48 24.52 29.49 C20.72 29.5 16.92 29.5 13.13 29.49 C11.73 29.49 10.33 29.49 8.93 29.5 C7.03 29.51 5.13 29.5 3.23 29.49 C2.16 29.49 1.1 29.49 -0 29.49 C-2.51 29.25 -2.51 29.25 -4.51 27.25 C-4.77 24.76 -4.77 24.76 -4.78 21.65 C-4.78 20.54 -4.78 19.43 -4.78 18.28 C-4.77 16.53 -4.77 16.53 -4.76 14.75 C-4.77 13.58 -4.78 12.41 -4.78 11.21 C-4.78 10.1 -4.78 8.99 -4.78 7.84 C-4.77 6.82 -4.77 5.79 -4.77 4.74 C-4.41 1.24 -3.49 0.34 0 0 Z " fill="#FFFFFF" transform="translate(1335.5106143951416,336.75390434265137)"/>
<path d="M0 0 C1.81 -0.01 1.81 -0.01 3.65 -0.02 C4.99 -0.01 6.32 -0.01 7.66 -0 C9.07 -0.01 10.47 -0.01 11.88 -0.02 C15.7 -0.02 19.52 -0.02 23.34 -0.01 C27.33 -0.01 31.33 -0.01 35.32 -0.02 C42.02 -0.02 48.73 -0.02 55.44 -0.01 C63.2 0 70.96 0 78.72 -0.01 C85.37 -0.02 92.03 -0.02 98.69 -0.02 C102.66 -0.01 106.64 -0.01 110.62 -0.02 C114.36 -0.02 118.1 -0.02 121.84 -0.01 C123.21 -0.01 124.59 -0.01 125.96 -0.01 C127.83 -0.02 129.7 -0.01 131.57 0 C133.15 0 133.15 0 134.75 0 C137.22 0.25 137.22 0.25 139.22 2.25 C139.47 4.85 139.47 4.85 139.45 8.1 C139.45 9.26 139.45 10.43 139.45 11.62 C139.44 12.84 139.42 14.06 139.41 15.32 C139.41 17.15 139.41 17.15 139.41 19.02 C139.36 28.11 139.36 28.11 138.22 29.25 C136.34 29.35 134.45 29.38 132.56 29.37 C131.33 29.38 130.1 29.38 128.83 29.38 C127.46 29.37 126.08 29.37 124.71 29.37 C123.27 29.37 121.83 29.37 120.39 29.37 C116.48 29.37 112.56 29.36 108.64 29.36 C104.55 29.35 100.46 29.35 96.37 29.35 C88.62 29.34 80.87 29.34 73.13 29.33 C64.31 29.31 55.49 29.31 46.67 29.3 C28.52 29.29 10.37 29.28 -7.78 29.25 C-9.9 25.01 -9.01 19.41 -9.03 14.75 C-9.05 13.59 -9.07 12.42 -9.09 11.22 C-9.09 10.11 -9.1 8.99 -9.1 7.85 C-9.11 6.82 -9.12 5.8 -9.13 4.74 C-9.01 3.92 -8.9 3.1 -8.78 2.25 C-5.33 -0.04 -4.06 0 0 0 Z " fill="#FFFFFF" transform="translate(1339.776138305664,441.74603271484375)"/>
<path d="M0 0 C1.4 0.01 1.4 0.01 2.83 0.02 C7.21 0.06 11.57 0.22 15.94 0.58 C16.63 0.63 17.32 0.69 18.03 0.75 C20.65 1.42 22.03 2.39 24 4.25 C24.5 6.64 24.5 6.64 24.5 9.51 C24.51 10.59 24.52 11.66 24.53 12.77 C24.52 13.93 24.51 15.1 24.5 16.29 C24.5 17.49 24.5 18.69 24.5 19.92 C24.5 22.46 24.49 25 24.47 27.54 C24.44 31.4 24.45 35.27 24.46 39.14 C24.45 41.61 24.44 44.08 24.43 46.54 C24.44 47.7 24.44 48.85 24.44 50.03 C24.35 57.72 23.74 63.8 18.81 70 C10.95 76.29 4.7 76.85 -5.2 76.66 C-7.26 76.62 -9.32 76.62 -11.38 76.62 C-21.44 76.53 -21.44 76.53 -26 74.25 C-26 69.96 -26 65.67 -26 61.25 C-24.66 61.41 -23.32 61.58 -21.94 61.75 C-17.38 62.19 -12.83 62.44 -8.25 62.56 C-7.02 62.6 -5.79 62.64 -4.52 62.68 C-0.33 62.17 1.78 60.93 5 58.25 C5.33 57.26 5.66 56.27 6 55.25 C5.48 55.41 4.96 55.57 4.42 55.73 C-4.64 57.67 -14.75 57.08 -22.74 52.18 C-27.62 48.52 -30.36 43.97 -31.75 38.06 C-33.12 17.15 -33.12 17.15 -26 8.25 C-18.56 0.81 -10.2 -0.23 0 0 Z M-11.75 16.31 C-16.03 21.9 -16.47 27.15 -15.62 33.94 C-14.69 37.42 -12.82 39.12 -10 41.25 C-6.83 42.83 -3.45 42.73 0 42.25 C2.39 41.35 4.67 40.32 7 39.25 C7.03 35.27 7.05 31.29 7.06 27.31 C7.07 26.18 7.08 25.04 7.09 23.87 C7.09 22.79 7.09 21.71 7.1 20.6 C7.1 19.6 7.11 18.6 7.11 17.57 C7.26 15.29 7.26 15.29 6 14.25 C-3.32 13.15 -3.32 13.15 -11.75 16.31 Z " fill="#FFFFFF" transform="translate(1270,576.75)"/>
<path d="M0 0 C1.58 -0.02 1.58 -0.02 3.19 -0.04 C9.35 -0.05 15.45 0.07 21.31 2.19 C23.31 4.19 23.31 4.19 23.54 6.63 C23.52 8.17 23.52 8.17 23.5 9.74 C23.48 10.9 23.47 12.06 23.46 13.26 C23.44 14.52 23.42 15.78 23.39 17.08 C23.37 19.02 23.37 19.02 23.34 20.99 C23.3 23.74 23.25 26.48 23.2 29.22 C23.13 32.72 23.09 36.22 23.05 39.72 C23.01 43.07 22.95 46.42 22.89 49.77 C22.88 51.02 22.87 52.27 22.86 53.56 C22.82 55.33 22.82 55.33 22.78 57.12 C22.76 58.15 22.74 59.18 22.72 60.24 C22.24 63.69 21.01 66.17 19.31 69.19 C18.65 69.19 17.99 69.19 17.31 69.19 C17.31 69.85 17.31 70.51 17.31 71.19 C9.67 76.19 2.98 76.9 -6.04 76.67 C-8.08 76.62 -10.12 76.61 -12.16 76.61 C-22.09 76.48 -22.09 76.48 -26.69 74.19 C-26.69 70.23 -26.69 66.27 -26.69 62.19 C-22.07 61.26 -20.91 61.26 -16.69 62.19 C-14.21 62.35 -11.73 62.45 -9.25 62.5 C-7.33 62.56 -7.33 62.56 -5.38 62.61 C-1.08 62.12 1.02 60.94 4.31 58.19 C4.64 57.2 4.97 56.21 5.31 55.19 C4.8 55.35 4.29 55.5 3.76 55.67 C-5.29 57.59 -15.74 57.21 -23.69 52.19 C-28.81 47.98 -31.57 42.68 -32.69 36.19 C-33.48 26 -33.43 16.69 -27 8.38 C-19.5 0.32 -10.33 0.01 0 0 Z M-12.44 16.31 C-16.37 21.33 -17.34 25.86 -16.69 32.19 C-15.39 35.88 -14.17 39.24 -10.79 41.4 C-5.88 43.24 -1.58 42.66 3.07 40.67 C4.68 39.94 4.68 39.94 6.31 39.19 C6.34 35.21 6.36 31.23 6.38 27.25 C6.38 26.11 6.39 24.98 6.4 23.81 C6.4 22.73 6.41 21.65 6.41 20.54 C6.42 19.53 6.42 18.53 6.43 17.5 C6.57 15.23 6.57 15.23 5.31 14.19 C-4.03 13.08 -4.03 13.08 -12.44 16.31 Z " fill="#FFFFFF" transform="translate(833.6875,576.8125)"/>
<path d="M0 0 C10.44 -0.22 20.24 -0.12 29.01 6.12 C35.22 12.15 37.25 17.25 37.44 25.88 C37.48 44.02 37.48 44.02 30.59 51.71 C24.83 57.06 17.31 59.26 9.63 59.31 C8.51 59.32 7.39 59.34 6.23 59.35 C3.06 59.12 0.87 58.48 -1.99 57.12 C-1.98 58.02 -1.98 58.02 -1.98 58.94 C-1.96 61.65 -1.94 64.35 -1.93 67.06 C-1.92 68 -1.91 68.95 -1.9 69.92 C-1.9 71.27 -1.9 71.27 -1.89 72.65 C-1.89 73.9 -1.89 73.9 -1.88 75.17 C-1.99 77.12 -1.99 77.12 -2.99 78.12 C-5.48 78.25 -7.94 78.31 -10.43 78.31 C-11.12 78.32 -11.82 78.33 -12.53 78.35 C-14.35 78.35 -16.18 78.24 -17.99 78.12 C-20.83 75.29 -20.26 73.41 -20.28 69.44 C-20.29 68.75 -20.3 68.07 -20.3 67.36 C-20.32 65.08 -20.33 62.81 -20.33 60.54 C-20.33 58.96 -20.34 57.38 -20.35 55.8 C-20.36 52.48 -20.36 49.17 -20.36 45.86 C-20.36 41.61 -20.39 37.36 -20.42 33.12 C-20.45 29.85 -20.45 26.59 -20.45 23.33 C-20.45 21.76 -20.46 20.2 -20.48 18.63 C-20.5 16.44 -20.49 14.25 -20.48 12.06 C-20.48 10.81 -20.48 9.57 -20.49 8.28 C-19.9 4.54 -18.98 3.38 -15.99 1.12 C-10.84 -0.16 -5.29 0.16 0 0 Z M-1.99 16.12 C-2.14 20.06 -2.23 23.99 -2.3 27.93 C-2.35 29.05 -2.39 30.17 -2.43 31.33 C-2.45 32.4 -2.46 33.47 -2.48 34.58 C-2.51 35.57 -2.53 36.56 -2.56 37.58 C-2.23 40.34 -2.23 40.34 0.38 41.94 C4.61 43.84 8.47 43.79 13.01 43.12 C16.44 41.26 17.62 39.91 19.32 36.43 C20.51 30.68 21 26.1 18.32 20.75 C15.16 17.16 13.21 15.29 8.31 14.91 C2.99 14.67 2.99 14.67 -1.99 16.12 Z " fill="#FFFFFF" transform="translate(1408.9921875,575.87890625)"/>
<path d="M0 0 C3.76 2.99 5.62 5.44 7 10 C7.28 13.22 7.26 16.42 7.23 19.64 C7.23 20.56 7.23 21.49 7.23 22.44 C7.23 24.38 7.22 26.32 7.21 28.27 C7.19 31.25 7.19 34.24 7.19 37.23 C7.18 39.11 7.17 41 7.17 42.89 C7.17 43.79 7.17 44.69 7.16 45.61 C7.12 51.88 7.12 51.88 6 53 C4.04 53.17 4.04 53.17 1.62 53.19 C0.44 53.21 0.44 53.21 -0.77 53.23 C-3 53 -3 53 -6 51 C-8.06 51.2 -8.06 51.2 -10.31 51.88 C-19.64 53.96 -30.33 54.61 -39 50 C-43.72 46.29 -45.54 42.83 -46.25 36.9 C-46.56 31.14 -45.65 26.55 -42 22 C-34.97 16.95 -28.3 16.34 -19.88 16.69 C-18.82 16.71 -17.77 16.73 -16.69 16.76 C-14.12 16.81 -11.56 16.9 -9 17 C-11.19 12.83 -11.19 12.83 -15.31 10.62 C-22.48 9.2 -30.25 10.32 -37.37 11.61 C-38.67 11.8 -38.67 11.8 -40 12 C-41.81 10.19 -41.22 7.5 -41.25 5.06 C-41.28 3.98 -41.3 2.9 -41.33 1.79 C-41.22 0.87 -41.11 -0.05 -41 -1 C-31.14 -7.57 -9.81 -5.9 0 0 Z M-29 32 C-29.42 34.37 -29.42 34.37 -29 37 C-26.12 39.62 -24.52 40.02 -20.62 39.88 C-16.63 38.91 -13.59 38.01 -10 36 C-9.26 33.45 -9.26 33.45 -9 31 C-10.6 30.66 -12.21 30.33 -13.81 30 C-14.71 29.81 -15.6 29.63 -16.52 29.44 C-21.51 28.56 -24.45 29.94 -29 32 Z " fill="#FFFFFF" transform="translate(1652,581)"/>
<path d="M0 0 C0.94 -0.02 1.89 -0.04 2.86 -0.06 C10.63 -0.11 18.52 0.74 24.81 5.69 C28.28 9.24 29.56 11.77 29.56 16.73 C29.56 18.04 29.56 18.04 29.56 19.39 C29.56 20.32 29.55 21.26 29.54 22.23 C29.54 23.2 29.54 24.17 29.54 25.17 C29.54 27.21 29.53 29.25 29.52 31.3 C29.5 34.44 29.5 37.58 29.5 40.72 C29.49 42.7 29.49 44.68 29.48 46.67 C29.48 47.61 29.48 48.56 29.48 49.53 C29.47 50.4 29.46 51.27 29.46 52.16 C29.45 53.31 29.45 53.31 29.45 54.49 C29.31 56.25 29.31 56.25 28.31 57.25 C20.98 57.61 20.98 57.61 18.32 56.18 C15.74 54.98 14.65 55.37 11.94 56.12 C1.02 58.6 -8.77 58.25 -18.5 52.62 C-22.24 48.57 -23.5 44.14 -23.86 38.69 C-23.63 33.21 -22.28 29.81 -18.65 25.72 C-11.99 20.72 -5.79 20.87 2.25 21.06 C3.85 21.08 3.85 21.08 5.48 21.1 C8.09 21.14 10.7 21.19 13.31 21.25 C11.13 17.08 11.13 17.08 7 14.88 C-0.17 13.45 -7.93 14.57 -15.05 15.86 C-16.36 16.05 -16.36 16.05 -17.69 16.25 C-19.5 14.44 -18.9 11.75 -18.94 9.31 C-18.96 8.23 -18.99 7.15 -19.02 6.04 C-18.91 5.12 -18.8 4.2 -18.69 3.25 C-12.98 -0.55 -6.64 0.04 0 0 Z M-5.69 36.25 C-6.92 38.17 -6.92 38.17 -6.69 40.25 C-5.15 42.69 -3.8 43.21 -1.06 44.12 C3.46 44.29 7.21 43.11 11.31 41.25 C11.97 40.59 12.63 39.93 13.31 39.25 C13.31 37.93 13.31 36.61 13.31 35.25 C11.71 34.91 10.1 34.58 8.5 34.25 C7.61 34.06 6.71 33.88 5.79 33.69 C1.02 32.85 -1.57 33.74 -5.69 36.25 Z " fill="#FFFFFF" transform="translate(531.6875,576.75)"/>
<path d="M0 0 C4.52 3.63 6.34 8.04 7.85 13.49 C8.12 16.24 8.13 18.97 8.1 21.74 C8.11 22.82 8.11 22.82 8.12 23.92 C8.11 29.23 8.11 29.23 5.85 31.49 C3.27 31.66 0.8 31.72 -1.78 31.68 C-2.91 31.68 -2.91 31.68 -4.06 31.68 C-6.46 31.66 -8.87 31.64 -11.27 31.61 C-12.9 31.6 -14.53 31.59 -16.16 31.59 C-20.16 31.56 -24.15 31.53 -28.15 31.49 C-26.79 34.63 -26.32 35.39 -23.21 37.18 C-14.98 40.28 -6.28 39.53 2.3 38.64 C3.14 38.59 3.98 38.54 4.85 38.49 C6.59 40.23 6.02 42.57 6.04 44.93 C6.05 45.91 6.07 46.9 6.08 47.92 C5.85 50.49 5.85 50.49 3.85 52.49 C-9.3 55.12 -25.03 55.4 -36.52 47.86 C-41.56 43.8 -43.16 38.44 -45.15 32.49 C-45.73 22.46 -46.19 12.59 -39.9 4.18 C-30.03 -5.47 -11.84 -7.22 0 0 Z M-26.15 12.49 C-28.03 15.11 -28.15 16.22 -28.15 19.49 C-25.38 19.57 -22.61 19.63 -19.84 19.68 C-18.66 19.71 -18.66 19.71 -17.46 19.75 C-16.7 19.76 -15.94 19.77 -15.16 19.78 C-14.46 19.8 -13.77 19.81 -13.05 19.83 C-10.6 19.39 -9.72 18.35 -8.15 16.49 C-8.67 14.52 -8.67 14.52 -10.15 12.49 C-16.93 9.1 -19.37 9.1 -26.15 12.49 Z " fill="#FFFFFF" transform="translate(714.1484375,580.51171875)"/>
<path d="M0 0 C5.89 3.59 8.32 8.37 10.12 14.88 C10.4 17.63 10.41 20.36 10.38 23.12 C10.39 24.2 10.39 24.2 10.4 25.3 C10.38 30.62 10.38 30.62 8.12 32.88 C5.54 33.05 3.07 33.11 0.49 33.07 C-0.64 33.07 -0.64 33.07 -1.79 33.06 C-4.19 33.05 -6.6 33.03 -9 33 C-10.63 32.99 -12.26 32.98 -13.89 32.97 C-17.88 32.95 -21.88 32.92 -25.88 32.88 C-24.46 36.27 -24.04 36.79 -20.56 38.56 C-14.09 40.87 -8.9 40.85 -2.12 40.38 C-0.4 40.26 1.32 40.14 3.05 40.03 C4.19 39.95 4.19 39.95 5.35 39.87 C7.12 39.88 7.12 39.88 8.12 40.88 C8.2 42.89 8.21 44.92 8.19 46.94 C8.18 48.04 8.17 49.15 8.16 50.29 C8.15 51.14 8.14 51.99 8.12 52.88 C2.05 54.64 -3.44 55.23 -9.75 55.19 C-10.63 55.18 -11.52 55.18 -12.42 55.17 C-20.88 55.02 -28.49 53.83 -35.34 48.54 C-42.26 41.06 -43.32 31.66 -43.16 21.98 C-42.83 14.81 -40.14 7.85 -34.88 2.88 C-24.86 -3.1 -10.87 -5.09 0 0 Z M-21.88 12.88 C-25.23 16.31 -25.23 16.31 -25.88 20.88 C-23.1 20.96 -20.33 21.02 -17.56 21.06 C-16.38 21.1 -16.38 21.1 -15.18 21.14 C-14.42 21.15 -13.67 21.16 -12.89 21.17 C-12.19 21.18 -11.49 21.2 -10.78 21.22 C-8.33 20.78 -7.45 19.74 -5.88 17.88 C-7.4 14.83 -8.32 13.17 -11.38 11.56 C-15.51 10.43 -18.11 10.95 -21.88 12.88 Z " fill="#FFFFFF" transform="translate(1074.875,579.125)"/>
<path d="M0 0 C0.76 -0.02 1.51 -0.04 2.29 -0.07 C9.38 -0.04 14.53 2.24 19.75 7 C25.23 14.42 25.23 23.08 24.36 31.88 C23.94 34.44 23.94 34.44 22.94 35.44 C20.42 35.53 17.92 35.55 15.4 35.54 C14.27 35.53 14.27 35.53 13.12 35.53 C10.7 35.53 8.29 35.51 5.88 35.5 C4.24 35.49 2.61 35.49 0.97 35.49 C-3.04 35.48 -7.05 35.46 -11.06 35.44 C-8.54 40.01 -8.54 40.01 -4.06 42.31 C2.09 43.97 8.23 43.33 14.51 42.77 C15.31 42.7 16.11 42.64 16.94 42.57 C17.66 42.49 18.38 42.42 19.12 42.35 C20.94 42.44 20.94 42.44 22.94 44.44 C23.24 46.5 23.24 46.5 23.25 48.88 C23.27 49.66 23.28 50.44 23.3 51.25 C22.94 53.44 22.94 53.44 21.86 55.16 C16.94 58.44 9.75 57.62 4 57.62 C3.24 57.64 2.48 57.65 1.7 57.66 C-6.99 57.68 -14.1 55.78 -21.06 50.44 C-26.6 44.9 -28.42 38.05 -28.53 30.43 C-28.52 29.63 -28.51 28.83 -28.5 28 C-28.49 27.16 -28.48 26.33 -28.48 25.46 C-28.27 17.57 -26.58 12.07 -21.38 6.06 C-15.12 0.53 -8.03 0.15 0 0 Z M-9.06 16.44 C-11.43 19.39 -11.43 19.39 -11.06 23.44 C-5.45 23.44 0.16 23.44 5.94 23.44 C6.6 22.12 7.26 20.8 7.94 19.44 C5.73 16 4.54 14.62 0.56 13.44 C-3.57 13.44 -5.62 14.2 -9.06 16.44 Z " fill="#FFFFFF" transform="translate(1000.0625,576.5625)"/>
<path d="M0 0 C4.31 3.63 6.43 7.56 7.73 12.99 C8.38 25.47 8.38 25.47 5.92 31.62 C-5.3 31.62 -16.52 31.62 -28.08 31.62 C-24.63 37.36 -23.67 37.59 -17.69 39.12 C-11.21 40.35 -4.89 39.47 1.6 38.74 C3.92 38.62 3.92 38.62 5.92 39.62 C5.92 43.58 5.92 47.54 5.92 51.62 C-5.53 55.01 -21.58 55.96 -32.47 50.39 C-39.29 46.27 -42.35 41.94 -44.33 34.3 C-45.27 29.38 -45.31 24.61 -45.08 19.62 C-45.07 18.58 -45.07 18.58 -45.06 17.52 C-44.74 11.51 -42.03 7.07 -38.08 2.62 C-28.17 -5.39 -10.98 -6.7 0 0 Z M-25.08 11.62 C-27.03 13.38 -27.03 13.38 -28.08 15.62 C-27.69 17.72 -27.69 17.72 -27.08 19.62 C-24.27 19.64 -21.45 19.66 -18.64 19.68 C-17.44 19.69 -17.44 19.69 -16.21 19.71 C-14.17 19.71 -12.12 19.67 -10.08 19.62 C-8.78 18.55 -8.78 18.55 -9.02 16.05 C-9.04 15.25 -9.06 14.45 -9.08 13.62 C-10.15 12.96 -11.22 12.3 -12.33 11.62 C-13.23 11.06 -13.23 11.06 -14.16 10.49 C-18.12 8.69 -21.41 9.74 -25.08 11.62 Z " fill="#FFFFFF" transform="translate(1499.078125,580.3828125)"/>
<path d="M0 0 C0.88 -0.01 1.77 -0.03 2.68 -0.04 C5.12 0.19 5.12 0.19 8.12 2.19 C8.12 3.51 8.12 4.83 8.12 6.19 C8.71 5.84 9.29 5.49 9.89 5.13 C18.51 0.35 27.52 -1.26 37.16 1.41 C41.2 3.01 44.14 5.1 46.02 9.1 C47.99 14.83 48.55 19.93 48.49 25.96 C48.49 27.3 48.49 27.3 48.49 28.67 C48.49 30.54 48.48 32.41 48.46 34.27 C48.44 37.14 48.44 40.01 48.45 42.88 C48.44 44.7 48.43 46.52 48.43 48.34 C48.43 49.63 48.43 49.63 48.43 50.94 C48.36 56.96 48.36 56.96 46.12 59.19 C43.41 59.42 43.41 59.42 40.19 59.38 C39.13 59.37 38.07 59.36 36.97 59.36 C34.12 59.19 34.12 59.19 31.12 58.19 C31.11 57.02 31.1 55.86 31.08 54.66 C31.02 50.33 30.95 46.01 30.86 41.69 C30.83 39.82 30.8 37.95 30.78 36.08 C30.75 33.39 30.69 30.7 30.64 28.01 C30.63 27.17 30.62 26.34 30.62 25.47 C30.63 21.19 30.63 21.19 28.8 17.47 C27.05 15.91 27.05 15.91 23.94 15.69 C18.99 16.34 15.43 17.28 12.12 21.19 C10.86 25.46 11.05 29.77 11.12 34.19 C11.15 37.06 11.16 39.94 11.17 42.81 C11.18 44.8 11.21 46.78 11.25 48.76 C11.26 49.68 11.27 50.59 11.29 51.54 C11.3 52.36 11.32 53.19 11.34 54.03 C11.12 56.19 11.12 56.19 9.12 59.19 C5.9 59.52 5.9 59.52 2.06 59.44 C0.79 59.42 -0.48 59.41 -1.79 59.39 C-4.88 59.19 -4.88 59.19 -5.88 58.19 C-5.97 56.41 -6 54.63 -6 52.86 C-6.01 51.72 -6.01 50.58 -6.01 49.41 C-6.01 48.17 -6.01 46.93 -6.01 45.66 C-6.01 44.39 -6.01 43.13 -6.01 41.83 C-6.01 39.16 -6.01 36.49 -6.01 33.81 C-6 30.38 -6 26.95 -6.01 23.51 C-6.01 20.25 -6.01 16.98 -6.01 13.72 C-6.01 12.48 -6.01 11.24 -6.01 9.97 C-6.01 8.83 -6.01 7.69 -6 6.52 C-6 5.51 -6 4.5 -6 3.46 C-5.77 -0.7 -3.67 0.03 0 0 Z " fill="#FFFFFF" transform="translate(1175.875,575.8125)"/>
<path d="M0 0 C1.08 -0.01 2.16 -0.03 3.28 -0.04 C6.06 0.19 6.06 0.19 8.06 2.19 C8.06 3.18 8.06 4.17 8.06 5.19 C8.59 4.91 9.12 4.63 9.67 4.35 C10.38 3.99 11.08 3.62 11.81 3.25 C12.51 2.89 13.2 2.53 13.92 2.16 C20.76 -0.95 30.26 -1.18 37.46 0.87 C42.53 3.54 45.29 7.88 47.06 13.19 C47.18 14.57 47.25 15.96 47.28 17.35 C47.31 18.19 47.33 19.02 47.35 19.88 C47.37 20.78 47.39 21.67 47.41 22.6 C47.44 23.52 47.46 24.44 47.48 25.4 C47.53 27.35 47.58 29.3 47.62 31.25 C47.69 34.24 47.77 37.24 47.84 40.23 C47.89 42.12 47.93 44.02 47.98 45.91 C48 46.81 48.02 47.71 48.05 48.63 C48.07 49.47 48.08 50.3 48.1 51.15 C48.12 51.89 48.13 52.62 48.15 53.37 C48.06 55.19 48.06 55.19 47.06 57.19 C44.58 57.21 42.1 57.23 39.62 57.25 C38.92 57.26 38.21 57.27 37.48 57.28 C35.68 57.28 33.87 57.24 32.06 57.19 C30 55.12 30.88 50.73 30.85 47.88 C30.82 46.17 30.79 44.45 30.77 42.74 C30.72 40.02 30.69 37.31 30.66 34.59 C30.63 31.98 30.59 29.37 30.54 26.76 C30.54 25.95 30.53 25.13 30.53 24.3 C30.54 20.12 30.54 20.12 28.77 16.48 C26.38 14.67 24.18 14.64 21.25 14.82 C16.85 15.56 13.84 16.52 11.06 20.19 C9.9 26.26 10.03 32.27 10.12 38.44 C10.13 40.96 10.12 43.49 10.1 46.01 C10.1 47.58 10.11 49.15 10.12 50.71 C10.14 52.54 10.11 54.36 10.06 56.19 C8.13 58.12 4.69 57.36 2.12 57.38 C0.86 57.39 -0.41 57.4 -1.71 57.42 C-4.94 57.19 -4.94 57.19 -6.94 55.19 C-7.18 52.9 -7.18 52.9 -7.18 50.02 C-7.18 48.94 -7.19 47.86 -7.19 46.75 C-7.18 45.59 -7.18 44.42 -7.17 43.21 C-7.17 42.02 -7.17 40.83 -7.17 39.6 C-7.16 37.07 -7.16 34.55 -7.14 32.02 C-7.13 28.14 -7.12 24.26 -7.12 20.37 C-7.12 17.92 -7.11 15.48 -7.11 13.03 C-7.1 11.86 -7.1 10.69 -7.1 9.48 C-7.09 7.87 -7.09 7.87 -7.08 6.23 C-7.08 5.28 -7.08 4.32 -7.07 3.34 C-6.8 -1.06 -3.76 0.02 0 0 Z " fill="#FFFFFF" transform="translate(740.9375,576.8125)"/>
<path d="M0 0 C1.65 0.02 1.65 0.02 3.34 0.04 C5 0.05 5 0.05 6.69 0.06 C7.54 0.07 8.4 0.09 9.28 0.1 C9.94 1.75 10.6 3.4 11.28 5.1 C11.81 4.82 12.34 4.54 12.89 4.26 C13.59 3.9 14.3 3.53 15.03 3.16 C15.72 2.8 16.42 2.44 17.14 2.07 C24.03 -1.06 33.79 -1.49 40.93 1.04 C45.45 3.73 48.32 6.85 49.84 11.98 C50.29 14.18 50.4 16.15 50.41 18.39 C50.41 19.23 50.41 20.07 50.42 20.93 C50.41 21.82 50.41 22.72 50.41 23.64 C50.41 24.56 50.41 25.49 50.41 26.44 C50.41 28.39 50.41 30.34 50.41 32.29 C50.4 35.28 50.41 38.28 50.41 41.28 C50.41 43.17 50.41 45.06 50.41 46.95 C50.41 47.85 50.41 48.76 50.42 49.68 C50.39 55.98 50.39 55.98 49.28 57.1 C46.95 57.2 44.61 57.23 42.28 57.22 C41 57.23 39.72 57.23 38.4 57.23 C35.28 57.1 35.28 57.1 34.28 56.1 C34.15 53.41 34.09 50.74 34.07 48.05 C34.04 46.38 34.01 44.72 33.98 43.05 C33.94 40.42 33.9 37.79 33.88 35.15 C33.85 32.62 33.8 30.08 33.75 27.55 C33.75 26.76 33.75 25.98 33.74 25.17 C33.67 21.94 33.48 19.49 31.98 16.6 C29.63 14.52 27.47 14.55 24.41 14.7 C20.59 15.42 17.05 17.33 14.28 20.1 C14.14 22.67 14.07 25.21 14.03 27.78 C14 29.36 13.97 30.95 13.93 32.53 C13.88 35.04 13.84 37.54 13.8 40.05 C13.76 42.46 13.71 44.87 13.66 47.28 C13.65 48.03 13.64 48.79 13.63 49.56 C13.5 54.87 13.5 54.87 11.28 57.1 C8.05 57.33 8.05 57.33 4.21 57.29 C2.95 57.28 1.68 57.27 0.37 57.27 C-2.72 57.1 -2.72 57.1 -3.72 56.1 C-3.82 54.38 -3.85 52.67 -3.85 50.95 C-3.86 49.3 -3.86 49.3 -3.86 47.62 C-3.86 46.43 -3.86 45.23 -3.86 44 C-3.86 42.79 -3.86 41.57 -3.86 40.32 C-3.86 37.74 -3.86 35.16 -3.85 32.58 C-3.85 28.61 -3.85 24.65 -3.86 20.69 C-3.86 18.19 -3.86 15.69 -3.86 13.19 C-3.86 12 -3.86 10.8 -3.86 9.57 C-3.86 8.47 -3.86 7.38 -3.85 6.24 C-3.85 5.27 -3.85 4.3 -3.85 3.3 C-3.66 0.01 -3.32 0.12 0 0 Z " fill="#FFFFFF" transform="translate(907.72265625,576.90234375)"/>
<path d="M0 0 C1.64 2.36 1.54 3.96 1.46 6.8 C1.44 7.68 1.43 8.56 1.41 9.46 C1.21 11.74 1.21 11.74 0.21 13.74 C-6.5 12.8 -6.5 12.8 -9.48 12.18 C-15.44 11.39 -22.04 10.82 -27.79 12.74 C-28.12 13.73 -28.45 14.72 -28.79 15.74 C-28.46 16.4 -28.13 17.06 -27.79 17.74 C-26.51 17.77 -25.24 17.79 -23.92 17.82 C-22.21 17.88 -20.5 17.93 -18.79 17.99 C-17.95 18.01 -17.11 18.02 -16.25 18.04 C-10.36 18.26 -5.62 19.23 -0.79 22.74 C3.14 27.16 3.73 30.47 3.64 36.3 C3.64 37.58 3.64 38.86 3.64 40.18 C3.04 45.09 1.43 47.62 -2.17 50.93 C-10.66 56.79 -21.7 56.77 -31.58 55.11 C-41.5 53.04 -41.5 53.04 -42.79 51.74 C-42.89 49.74 -42.92 47.74 -42.92 45.74 C-42.92 44.65 -42.92 43.56 -42.93 42.43 C-42.79 39.74 -42.79 39.74 -41.79 38.74 C-39.87 38.83 -39.87 38.83 -37.48 39.12 C-36.31 39.25 -36.31 39.25 -35.12 39.39 C-32.79 39.74 -32.79 39.74 -30.88 40.27 C-28.14 40.89 -25.54 40.91 -22.73 40.93 C-21.17 40.95 -21.17 40.95 -19.57 40.97 C-16.58 40.95 -16.58 40.95 -13.79 38.74 C-14.14 36.77 -14.14 36.77 -14.79 34.74 C-17.13 33.57 -18.55 33.62 -21.15 33.6 C-22.02 33.58 -22.89 33.56 -23.79 33.54 C-25.61 33.51 -27.43 33.49 -29.25 33.49 C-33.6 33.37 -36.82 33.21 -40.31 30.46 C-44.28 26.12 -45.72 21.99 -45.85 16.11 C-45.41 9.84 -44.13 5.89 -39.42 1.55 C-30.26 -4.77 -9.57 -6.72 0 0 Z " fill="#FFFFFF" transform="translate(1780.79296875,579.2578125)"/>
<path d="M0 0 C0.29 2.82 0.29 2.82 0.19 6.12 C0.15 7.77 0.15 7.77 0.11 9.45 C0.07 10.29 0.04 11.13 0 12 C-4.09 13 -6.5 12.63 -10.54 11.48 C-16.42 10.33 -23.3 10.1 -29 12 C-29.33 13.65 -29.66 15.3 -30 17 C-29.44 17.01 -28.87 17.02 -28.29 17.03 C-25.69 17.08 -23.1 17.17 -20.5 17.25 C-19.17 17.27 -19.17 17.27 -17.81 17.29 C-11.8 17.51 -6.93 18.38 -2 22 C2.91 27.51 2.9 33.15 2.56 40.13 C1.88 44.86 0.83 47.37 -2.69 50.58 C-14.09 57.57 -27.64 55.31 -40.01 52.85 C-41 52.57 -41.98 52.29 -43 52 C-44.31 49.38 -44.13 47.36 -44.12 44.44 C-44.13 43.45 -44.13 42.45 -44.13 41.43 C-44 39 -44 39 -43 38 C-41.07 38.09 -41.07 38.09 -38.69 38.38 C-37.52 38.51 -37.52 38.51 -36.32 38.65 C-34 39 -34 39 -32.09 39.53 C-29.34 40.15 -26.75 40.17 -23.94 40.19 C-22.37 40.21 -22.37 40.21 -20.78 40.23 C-17.79 40.21 -17.79 40.21 -15 38 C-15.27 36.02 -15.27 36.02 -16 34 C-18.67 33.11 -20.28 32.87 -23.02 32.82 C-23.79 32.8 -24.57 32.78 -25.37 32.75 C-26.99 32.71 -28.6 32.68 -30.22 32.66 C-35.56 32.47 -38.87 31.69 -43 28 C-47.1 21.75 -46.76 15.22 -46 8 C-43.77 3.03 -40.81 0.5 -36 -2 C-25.5 -5.25 -9.43 -6.29 0 0 Z " fill="#FFFFFF" transform="translate(1375,580)"/>
<path d="M0 0 C1.17 -0.01 1.17 -0.01 2.36 -0.01 C6.94 -0 11.38 0.15 15.88 1.12 C18.25 4.61 19.26 7.97 19.88 12.12 C19.96 11.51 20.05 10.9 20.14 10.26 C20.28 9.45 20.42 8.65 20.56 7.81 C20.69 7.01 20.82 6.21 20.95 5.39 C22.26 2.19 23.73 1.46 26.88 0.12 C29.95 -0.02 29.95 -0.02 33.12 0.31 C34.18 0.41 35.24 0.51 36.33 0.61 C37.59 0.86 37.59 0.86 38.88 1.12 C41.03 5.43 40.1 11.15 40.12 15.93 C40.12 18.05 40.16 20.17 40.19 22.29 C40.19 23.64 40.2 24.99 40.2 26.34 C40.21 27.57 40.22 28.8 40.23 30.06 C39.88 33.12 39.88 33.12 38.48 35.02 C35.54 37.04 32.29 36.68 28.88 36.12 C26.88 34.62 26.88 34.62 25.88 33.12 C25.52 33.62 25.17 34.12 24.81 34.62 C21.93 36.86 19.4 36.32 15.88 36.12 C14.88 34.14 13.89 32.17 12.88 30.12 C12.21 32.11 11.56 34.08 10.88 36.12 C9.4 36.15 7.92 36.17 6.44 36.19 C5.61 36.2 4.79 36.21 3.94 36.22 C1.88 36.12 1.88 36.12 0.88 35.12 C0.79 33.42 0.77 31.71 0.78 30 C0.78 28.96 0.78 27.93 0.79 26.86 C0.8 25.77 0.8 24.68 0.81 23.56 C0.82 22.47 0.82 21.38 0.83 20.25 C0.84 17.54 0.85 14.83 0.88 12.12 C-1.43 12.12 -3.74 12.12 -6.12 12.12 C-6.11 12.75 -6.1 13.37 -6.09 14.01 C-6.05 16.82 -6.03 19.63 -6 22.44 C-5.97 23.9 -5.97 23.9 -5.95 25.4 C-5.94 26.33 -5.94 27.27 -5.93 28.24 C-5.92 29.1 -5.91 29.97 -5.9 30.86 C-6.12 33.12 -6.12 33.12 -8.12 36.12 C-10.22 36.49 -10.22 36.49 -12.62 36.44 C-13.42 36.43 -14.21 36.43 -15.03 36.43 C-17.12 36.12 -17.12 36.12 -19.12 34.12 C-19.44 31.88 -19.44 31.88 -19.54 29.12 C-19.58 28.13 -19.62 27.14 -19.66 26.13 C-19.69 25.1 -19.72 24.06 -19.75 23 C-19.79 21.96 -19.83 20.92 -19.87 19.85 C-19.96 17.27 -20.05 14.7 -20.12 12.12 C-21.07 12.17 -22.02 12.21 -23 12.25 C-26.12 12.12 -26.12 12.12 -28.12 10.12 C-28.45 7.41 -28.26 4.87 -28.12 2.12 C-26.16 0.16 -22.45 0.71 -19.75 0.56 C-19 0.52 -18.25 0.48 -17.48 0.44 C-11.65 0.14 -5.83 0.02 0 0 Z " fill="#FFFFFF" transform="translate(1893.125,262.875)"/>
<path d="M0 0 C1.53 -0 1.53 -0 3.1 -0.01 C8.01 0.03 10.69 0.06 15.19 2.31 C15.19 6.27 15.19 10.23 15.19 14.31 C13.97 14.29 12.75 14.27 11.5 14.24 C9.87 14.22 8.25 14.21 6.62 14.19 C5.83 14.17 5.03 14.15 4.2 14.14 C-0.89 14.1 -4.99 14.67 -9.81 16.31 C-10.8 16.64 -11.79 16.97 -12.81 17.31 C-15.67 22.68 -15.44 28.4 -14.81 34.31 C-13.01 38.6 -11.18 40.41 -7 42.19 C-0.61 44.19 5.62 43.23 12.15 42.43 C13.16 42.37 13.16 42.37 14.19 42.31 C15.19 43.31 15.19 43.31 15.29 46.04 C15.27 47.14 15.26 48.24 15.25 49.38 C15.24 50.48 15.23 51.58 15.22 52.72 C15.21 53.58 15.2 54.43 15.19 55.31 C4.45 58.84 -9.43 59.14 -19.81 54.31 C-25.54 50.64 -29.99 45.95 -31.81 39.31 C-33.29 29.53 -33.77 19.92 -29.06 11 C-20.96 1.32 -12.24 -0.2 0 0 Z " fill="#FFFFFF" transform="translate(1548.8125,576.6875)"/>
<path d="M0 0 C0.99 -0.01 1.98 -0.03 3 -0.04 C5.56 0.19 5.56 0.19 7.56 2.19 C7.96 4.51 8.3 6.84 8.56 9.19 C9.42 9.18 10.27 9.16 11.15 9.15 C12.26 9.14 13.36 9.13 14.5 9.12 C15.6 9.11 16.7 9.1 17.84 9.09 C20.56 9.19 20.56 9.19 21.56 10.19 C21.66 12.02 21.69 13.85 21.69 15.69 C21.69 17.19 21.69 17.19 21.7 18.72 C21.56 21.19 21.56 21.19 20.56 22.19 C18.88 22.26 17.19 22.27 15.5 22.25 C14.58 22.24 13.66 22.23 12.71 22.22 C12 22.21 11.29 22.2 10.56 22.19 C10.45 26.44 10.38 30.69 10.31 34.94 C10.28 36.14 10.25 37.35 10.21 38.59 C10.19 40.33 10.19 40.33 10.17 42.11 C10.14 43.71 10.14 43.71 10.11 45.35 C10.68 48.91 11.73 50.01 14.56 52.19 C18.2 53.47 18.2 53.47 21.56 54.19 C21.59 55.81 21.61 57.44 21.62 59.06 C21.64 59.97 21.65 60.87 21.66 61.8 C21.56 64.19 21.56 64.19 20.56 66.19 C17.85 66.27 15.15 66.33 12.44 66.38 C11.68 66.4 10.92 66.43 10.13 66.45 C5.2 66.51 1.75 66.08 -2.44 63.19 C-7.62 57.58 -6.97 51.72 -6.86 44.39 C-6.86 43.15 -6.86 41.92 -6.85 40.65 C-6.84 38.06 -6.82 35.46 -6.79 32.86 C-6.75 28.87 -6.73 24.88 -6.72 20.89 C-6.71 18.37 -6.69 15.85 -6.68 13.32 C-6.67 12.12 -6.66 10.92 -6.65 9.68 C-6.64 8.58 -6.63 7.48 -6.61 6.35 C-6.6 5.37 -6.59 4.4 -6.58 3.39 C-6.3 -0.9 -3.73 0.02 0 0 Z " fill="#FFFFFF" transform="translate(1803.4375,567.8125)"/>
<path d="M0 0 C1.39 0.01 2.79 0.02 4.18 0.04 C4.89 0.04 5.61 0.04 6.34 0.05 C8.1 0.06 9.86 0.08 11.62 0.1 C13.1 3.05 12.76 5.7 12.77 8.99 C12.77 9.7 12.77 10.41 12.78 11.14 C12.79 13.49 12.79 15.84 12.79 18.19 C12.79 19.82 12.8 21.45 12.8 23.08 C12.81 26.49 12.81 29.91 12.81 33.33 C12.81 37.71 12.82 42.1 12.84 46.48 C12.85 49.85 12.85 53.21 12.85 56.58 C12.85 58.19 12.86 59.81 12.86 61.43 C12.87 63.69 12.87 65.94 12.86 68.2 C12.87 69.49 12.87 70.77 12.87 72.1 C12.62 75.1 12.62 75.1 10.62 77.1 C7.4 77.33 7.4 77.33 3.56 77.29 C2.29 77.28 1.02 77.27 -0.29 77.27 C-3.38 77.1 -3.38 77.1 -4.38 76.1 C-4.48 73.76 -4.52 71.45 -4.51 69.12 C-4.51 68.39 -4.51 67.66 -4.51 66.9 C-4.52 64.48 -4.52 62.05 -4.51 59.63 C-4.51 57.95 -4.51 56.27 -4.51 54.6 C-4.52 51.08 -4.51 47.55 -4.51 44.03 C-4.5 39.51 -4.51 34.99 -4.51 30.46 C-4.52 27 -4.52 23.53 -4.51 20.07 C-4.51 18.4 -4.51 16.73 -4.52 15.06 C-4.52 12.74 -4.51 10.41 -4.51 8.08 C-4.51 7.38 -4.51 6.69 -4.51 5.97 C-4.49 0.13 -4.49 0.13 0 0 Z " fill="#FFFFFF" transform="translate(1678.37890625,556.90234375)"/>
<path d="M0 0 C1.94 -0.11 3.87 -0.19 5.81 -0.25 C7.43 -0.32 7.43 -0.32 9.08 -0.39 C12 0 12 0 13.89 2.02 C14.25 2.67 14.62 3.33 15 4 C15.51 3.71 16.02 3.42 16.54 3.12 C20.85 0.8 23.97 -0.61 29 0 C30.74 1.74 30.17 4.08 30.19 6.44 C30.2 7.43 30.22 8.41 30.23 9.43 C30 12 30 12 28 14 C26.01 14.77 24.01 15.39 21.97 16.02 C19.33 17.33 18.48 18.43 17 21 C16.69 23.74 16.54 26.27 16.52 29.01 C16.5 30.16 16.5 30.16 16.48 31.34 C16.43 33.79 16.4 36.24 16.38 38.69 C16.34 41.15 16.3 43.61 16.25 46.07 C16.23 47.59 16.2 49.12 16.19 50.65 C16.11 55.89 16.11 55.89 15 57 C12.69 57.13 10.38 57.18 8.06 57.19 C6.8 57.2 5.53 57.22 4.22 57.23 C1 57 1 57 -1 55 C-1.25 52.76 -1.25 52.76 -1.24 49.94 C-1.25 48.88 -1.25 47.83 -1.25 46.74 C-1.24 45.03 -1.24 45.03 -1.23 43.28 C-1.23 42.11 -1.23 40.94 -1.23 39.74 C-1.23 37.26 -1.22 34.79 -1.21 32.31 C-1.19 28.52 -1.19 24.72 -1.19 20.92 C-1.18 18.52 -1.17 16.12 -1.17 13.72 C-1.17 12.58 -1.17 11.43 -1.16 10.26 C-1.16 9.2 -1.15 8.15 -1.15 7.06 C-1.14 6.13 -1.14 5.2 -1.13 4.24 C-1 2 -1 2 0 0 Z " fill="#FFFFFF" transform="translate(1098,577)"/>
<path d="M0 0 C1.94 -0.11 3.87 -0.19 5.81 -0.25 C7.43 -0.32 7.43 -0.32 9.08 -0.39 C12 0 12 0 13.89 2.02 C14.25 2.67 14.62 3.33 15 4 C16.52 3.01 16.52 3.01 18.06 2 C21.79 -0.15 24.68 -0.43 29 0 C30.74 1.74 30.17 4.08 30.19 6.44 C30.2 7.43 30.22 8.41 30.23 9.43 C30 12 30 12 28 14 C26.61 14.43 26.61 14.43 25.19 14.88 C21.57 16.15 19.66 17.22 17 20 C16.5 22.93 16.3 25.3 16.33 28.23 C16.31 29.42 16.31 29.42 16.29 30.63 C16.25 33.15 16.25 35.67 16.25 38.19 C16.23 40.72 16.2 43.25 16.17 45.78 C16.15 47.35 16.14 48.93 16.14 50.5 C16.11 55.89 16.11 55.89 15 57 C12.69 57.13 10.38 57.18 8.06 57.19 C6.8 57.2 5.53 57.22 4.22 57.23 C1 57 1 57 -1 55 C-1.25 52.76 -1.25 52.76 -1.24 49.94 C-1.25 48.88 -1.25 47.83 -1.25 46.74 C-1.24 45.03 -1.24 45.03 -1.23 43.28 C-1.23 42.11 -1.23 40.94 -1.23 39.74 C-1.23 37.26 -1.22 34.79 -1.21 32.31 C-1.19 28.52 -1.19 24.72 -1.19 20.92 C-1.18 18.52 -1.17 16.12 -1.17 13.72 C-1.17 12.58 -1.17 11.43 -1.16 10.26 C-1.16 9.2 -1.15 8.15 -1.15 7.06 C-1.14 6.13 -1.14 5.2 -1.13 4.24 C-1 2 -1 2 0 0 Z " fill="#FFFFFF" transform="translate(609,577)"/>
<path d="M0 0 C0.7 0 1.41 0.01 2.13 0.01 C2.83 0.01 3.53 0 4.26 0 C9.5 0.01 9.5 0.01 10.63 1.14 C10.73 2.81 10.77 4.5 10.77 6.18 C10.78 7.25 10.79 8.32 10.79 9.43 C10.79 10.6 10.8 11.77 10.8 12.98 C10.8 14.17 10.8 15.36 10.81 16.59 C10.81 19.12 10.81 21.65 10.81 24.17 C10.82 28.05 10.83 31.93 10.85 35.81 C10.86 38.26 10.86 40.71 10.86 43.16 C10.87 44.33 10.87 45.5 10.88 46.7 C10.88 47.78 10.87 48.86 10.87 49.97 C10.87 50.92 10.87 51.87 10.88 52.85 C10.63 55.14 10.63 55.14 8.63 57.14 C5.37 57.33 5.37 57.33 1.5 57.26 C-0.42 57.23 -0.42 57.23 -2.38 57.21 C-3.37 57.18 -4.35 57.16 -5.37 57.14 C-6.64 54.59 -6.5 52.81 -6.5 49.97 C-6.5 48.89 -6.51 47.81 -6.51 46.7 C-6.51 45.53 -6.51 44.37 -6.5 43.16 C-6.5 41.97 -6.51 40.78 -6.51 39.55 C-6.51 37.02 -6.51 34.5 -6.5 31.97 C-6.5 28.09 -6.5 24.2 -6.51 20.32 C-6.51 17.87 -6.51 15.43 -6.5 12.98 C-6.51 11.81 -6.51 10.64 -6.51 9.43 C-6.51 8.36 -6.5 7.28 -6.5 6.18 C-6.5 5.22 -6.5 4.27 -6.5 3.29 C-6.25 -0.98 -3.68 0.01 0 0 Z " fill="#FFFFFF" transform="translate(878.37109375,576.86328125)"/>
<path d="M0 0 C1.39 0.01 2.79 0.02 4.18 0.04 C4.89 0.04 5.61 0.04 6.34 0.05 C8.1 0.06 9.86 0.08 11.62 0.1 C11.81 7.73 11.99 15.37 12.16 23 C12.22 25.6 12.28 28.2 12.34 30.8 C12.44 34.53 12.52 38.26 12.6 41.99 C12.63 43.16 12.66 44.32 12.7 45.52 C12.73 47.15 12.73 47.15 12.76 48.8 C12.78 49.75 12.8 50.71 12.82 51.69 C12.62 54.1 12.62 54.1 10.62 57.1 C7.4 57.43 7.4 57.43 3.56 57.35 C2.29 57.33 1.02 57.32 -0.29 57.3 C-3.38 57.1 -3.38 57.1 -4.38 56.1 C-4.48 54.38 -4.51 52.67 -4.51 50.95 C-4.51 49.3 -4.51 49.3 -4.52 47.62 C-4.52 46.43 -4.51 45.23 -4.51 44 C-4.51 42.79 -4.51 41.57 -4.51 40.32 C-4.52 37.74 -4.51 35.16 -4.51 32.58 C-4.5 28.61 -4.51 24.65 -4.52 20.69 C-4.51 18.19 -4.51 15.69 -4.51 13.19 C-4.51 12 -4.52 10.8 -4.52 9.57 C-4.51 8.47 -4.51 7.38 -4.51 6.24 C-4.51 5.27 -4.51 4.3 -4.51 3.3 C-4.3 -0.32 -3.75 0.11 0 0 Z " fill="#FFFFFF" transform="translate(1710.37890625,576.90234375)"/>
<path d="M0 0 C4.95 0 9.9 0 15 0 C16.69 1.69 16.13 3.83 16.13 6.15 C16.13 7.24 16.14 8.34 16.14 9.47 C16.14 10.67 16.13 11.86 16.13 13.09 C16.13 14.92 16.13 14.92 16.14 16.78 C16.14 19.36 16.13 21.94 16.13 24.52 C16.13 28.48 16.13 32.45 16.14 36.41 C16.14 38.91 16.13 41.41 16.13 43.91 C16.13 45.1 16.14 46.3 16.14 47.53 C16.14 48.62 16.13 49.72 16.13 50.85 C16.13 51.83 16.13 52.8 16.13 53.8 C16 56 16 56 15 57 C10.05 57 5.1 57 0 57 C0 38.19 0 19.38 0 0 Z " fill="#FFFFFF" transform="translate(1577,577)"/>
<path d="M0 0 C4.95 0 9.9 0 15 0 C15 18.81 15 37.62 15 57 C10.05 57 5.1 57 0 57 C-1.69 55.31 -1.13 53.17 -1.13 50.85 C-1.13 49.21 -1.13 49.21 -1.14 47.53 C-1.14 46.33 -1.13 45.14 -1.13 43.91 C-1.13 42.69 -1.13 41.47 -1.14 40.22 C-1.14 37.64 -1.13 35.06 -1.13 32.48 C-1.13 28.52 -1.13 24.55 -1.14 20.59 C-1.14 18.09 -1.13 15.59 -1.13 13.09 C-1.13 11.9 -1.14 10.7 -1.14 9.47 C-1.14 8.38 -1.13 7.28 -1.13 6.15 C-1.13 5.17 -1.13 4.2 -1.13 3.2 C-1 1 -1 1 0 0 Z " fill="#FFFFFF" transform="translate(1139,577)"/>
<path d="M0 0 C2.48 -0.03 4.96 -0.05 7.44 -0.06 C8.14 -0.07 8.85 -0.08 9.58 -0.09 C11.39 -0.1 13.19 -0.05 15 0 C16.69 1.69 16.13 3.83 16.13 6.15 C16.13 7.24 16.14 8.34 16.14 9.47 C16.14 10.67 16.13 11.86 16.13 13.09 C16.13 14.92 16.13 14.92 16.14 16.78 C16.14 19.36 16.13 21.94 16.13 24.52 C16.13 28.48 16.13 32.45 16.14 36.41 C16.14 38.91 16.13 41.41 16.13 43.91 C16.13 45.1 16.14 46.3 16.14 47.53 C16.14 48.62 16.13 49.72 16.13 50.85 C16.13 51.83 16.13 52.8 16.13 53.8 C16 56 16 56 15 57 C12.67 57.1 10.33 57.13 8 57.12 C6.72 57.13 5.44 57.13 4.12 57.13 C1 57 1 57 0 56 C-0.09 54.25 -0.12 52.5 -0.11 50.75 C-0.11 49.62 -0.11 48.5 -0.11 47.35 C-0.11 46.13 -0.1 44.91 -0.1 43.65 C-0.1 42.41 -0.09 41.17 -0.09 39.89 C-0.09 36.58 -0.08 33.28 -0.07 29.97 C-0.06 26.6 -0.05 23.23 -0.05 19.86 C-0.04 13.24 -0.02 6.62 0 0 Z " fill="#FFFFFF" transform="translate(577,577)"/>
<path d="M0 0 C1.49 0.01 2.98 0.02 4.46 0.04 C5.22 0.04 5.98 0.04 6.76 0.05 C8.64 0.06 10.52 0.08 12.4 0.1 C12.6 1.7 12.78 3.31 12.96 4.91 C13.07 5.8 13.17 6.7 13.28 7.62 C13.4 10.1 13.4 10.1 12.4 13.1 C9.55 14.52 7.07 14.27 3.9 14.29 C2.74 14.3 1.57 14.31 0.37 14.33 C-2.6 14.1 -2.6 14.1 -4.6 12.1 C-4.83 9.53 -4.83 9.53 -4.79 6.54 C-4.78 5.54 -4.77 4.55 -4.77 3.53 C-4.5 -0.37 -4.08 0.11 0 0 Z " fill="#FFFFFF" transform="translate(580.59765625,556.90234375)"/>
<path d="M0 0 C0.7 0 1.41 0.01 2.13 0.01 C2.83 0.01 3.53 0 4.26 0 C9.5 0.01 9.5 0.01 10.63 1.14 C10.7 3.16 10.71 5.18 10.69 7.2 C10.68 8.3 10.67 9.41 10.66 10.55 C10.65 11.4 10.64 12.26 10.63 13.14 C7.78 14.56 5.3 14.27 2.13 14.26 C0.38 14.27 0.38 14.27 -1.4 14.27 C-4.37 14.14 -4.37 14.14 -6.37 13.14 C-6.4 11.16 -6.42 9.18 -6.43 7.2 C-6.45 6.1 -6.46 4.99 -6.47 3.86 C-6.3 -0.92 -4.27 0.01 0 0 Z " fill="#FFFFFF" transform="translate(878.37109375,556.86328125)"/>
<path d="M0 0 C2.48 -0.03 4.96 -0.05 7.44 -0.06 C8.14 -0.07 8.85 -0.08 9.58 -0.09 C11.39 -0.1 13.19 -0.05 15 0 C16 1 16 1 16.1 3.72 C16.09 4.82 16.07 5.93 16.06 7.06 C16.05 8.17 16.04 9.27 16.04 10.41 C16.02 11.26 16.01 12.12 16 13 C10.39 13.83 5.58 14.07 0 13 C0 8.71 0 4.42 0 0 Z " fill="#FFFFFF" transform="translate(1577,557)"/>
<path d="M0 0 C1.27 -0.03 2.53 -0.05 3.84 -0.08 C5.44 0.08 5.44 0.08 7.06 0.25 C9.52 3.93 9.3 5.9 9.06 10.25 C8.73 11.24 8.4 12.23 8.06 13.25 C2.78 13.25 -2.5 13.25 -7.94 13.25 C-8.04 3.97 -8.04 3.97 -7.94 1.25 C-6 -0.69 -2.57 0.03 0 0 Z " fill="#FFFFFF" transform="translate(1713.9375,556.75)"/>
<path d="M0 0 C1.39 0.01 2.79 0.02 4.18 0.04 C4.89 0.04 5.61 0.04 6.34 0.05 C8.1 0.06 9.86 0.08 11.62 0.1 C11.62 4.39 11.62 8.68 11.62 13.1 C-1 14.22 -1 14.22 -4.38 13.1 C-4.41 11.12 -4.43 9.14 -4.44 7.16 C-4.45 6.06 -4.46 4.96 -4.48 3.82 C-4.33 -0.21 -4.13 0.12 0 0 Z " fill="#FFFFFF" transform="translate(1142.37890625,556.90234375)"/>
</svg>
