<svg xmlns="http://www.w3.org/2000/svg" width="250" height="250" viewBox="0 0 250 250">
<!-- SVG created with Arrow, by QuiverAI (https://quiver.ai) -->
  <rect width="250" height="250" fill="#FEFFFE" fill-opacity=".48"/>
  <path d="m242.7 106.4c-4.71 0-8.07 3.32-8.07 8.03 0 4.72 3.36 8.04 8.07 8.04s7.31-3.32 7.31-8.04c0-4.71-2.76-8.03-7.31-8.03zm4.29 11.22-2.57 2.56h-2.35c-3.42 0-5.25-2.44-5.25-5.7v-2.01h8.17v3.57h0.95v-3.57h1.88c0.38 1.6 0.22 3.62-0.83 5.15z" fill="#FEFFFE"/>
  <path d="m239.1 111.4v2.5h2.11v-1.4h0.95v2.91h1.81v-2.91h0.95v1.4h1.66v-2.5h-7.48z" fill="#FEFFFE"/>
  <path d="m235.8 143.1-185.8-0.3-2.77 2.14c-3.4 1.82-5.22 2.21-9.5 2.21-12.63 0-22.69-11.3-22.69-23.75 0-12.44 10.6-22.1 21.29-22.1 7.68 0 13.6 2.76 18.12 8.42l5.55-1.64c-5.2-7.86-12.97-11.46-22.27-11.46-14.8 0-27.76 13.33-27.76 27.08 0 14.8 11.47 27.88 26.27 27.88 3.9 0 6.97-0.46 10.47-2.1l3.13-2.03 186 0.15-0.03-4.5z" fill="#FEFFFE"/>
  <path d="m47.01 159.1c-3.24 0.88-6 1.22-10.09 1.22-19.73 0-35.53-16.4-35.53-36.6 0-16.99 12.68-33.7 32.7-36.43l7.19-0.28c13.33 1.37 27.59 10.13 31.63 24.1l0.95 6.61h-6.15c-2.03-12.63-12.63-24.1-26.5-25.6l-6.09 0.15c-16.1 2.33-28.01 16.35-28.01 31.45 0 16.1 13.1 30.87 29.81 30.87 2.91 0 5.12-0.27 8.03-1.1l2.06 5.61z" fill="#FEFFFE"/>
  <path d="m47.71 133.1c-2.35-1.05-3.64-1.4-6.5-1.4-7.3 0-11.2-3.47-13.45-9.43 1.35-5.4 5.23-8.82 9.87-8.82 2.03 0 2.98 0.25 4.78 1.3l4.6-5.45c-2.62-1.45-4.5-1.93-8.1-1.93-9.2 0-16.27 7.38-16.27 15.98 0 9.1 7.37 14.9 15.57 14.9 3.35 0 5.41-0.45 8.6-2l0.9-3.15z" fill="#FEFFFE"/>
  <path d="m55.23 116v18.15l3.95 4.05h5.95v-4.4h-4.05v-17.8h-5.85z" fill="#FEFFFE"/>
  <path d="m69.17 121.4v16.8h5.6v-16.8h-5.6z" fill="#FEFFFE"/>
  <path d="m77.12 121.4v4.4h4.4v12.45h5.5v-12.45h6v12.45h5.15v-12.45h1.95v12.45h5.2v-13.3l-3.5-3.55h-24.7z" fill="#FEFFFE"/>
  <path d="m123.6 121.4h-15.55v4.05h13.65v2.7h-8.5c-3.15 0-4.8 2.1-4.8 5.15 0 2.95 1.9 4.9 4.7 4.9h13.9v-13.1l-3.4-3.7zm-1.9 13.2h-7.3v-2.85h7.3v2.85z" fill="#FEFFFE"/>
  <path d="m132.6 114.9v6.15h-3.5v4.05h3.5v9.25l3.7 3.8h7v-4.05h-5.15v-9.2h5.45v-4.05h-5.55v-5.95h-5.45z" fill="#FEFFFE"/>
  <path d="m148 114.8v23.3h3.7v-13h8.2v13h4.05v-13.5l-2.9-3.55h-9.5v-6.25h-3.55z" fill="#FEFFFE"/>
  <path d="m167.4 121.1v4.05h18.5v-4.05h-18.5zm-0.3 7.45v4.05h7.6v2.1h-7.3v3.25h18.5v-3.25h-6.75v-2.2h7.3v-3.95h-19.35z" fill="#FEFFFE"/>
  <path d="m188.8 121.4v16.75h4.4v-13h7l2.5 3.7h3.9v9.4h4.55v-13.15l-3.15-3.7h-6.9l1.4 3h-9.3v-3h-4.4z" fill="#FEFFFE"/>
  <path d="m208.9 121.4v4.05h6.15v12.7h5.5v-13h6.4v13h5.45v-13l-3.15-3.75h-20.35z" fill="#FEFFFE"/>
  <path d="m234.5 121.4v4.05h2.45v12.7h1.05v-13.5l-3.5-3.25z" fill="#FEFFFE"/>
  <path d="m62.03 152.1v1.3h4.05v4.4h1.55v-5.7h-5.6zm0 4.05v1.95l1.4 1.1h2.65v-1.1h1.55v-1.95h-5.6z" fill="#FEFFFE"/>
  <path d="m70.33 151.6v7.45h1.75v-7.45h-1.75z" fill="#FEFFFE"/>
  <path d="m75.13 151.6v7.45h1.65v-7.45h-1.65z" fill="#FEFFFE"/>
  <path d="m78.13 152.5v1.4h0.95v0.8h0.7v-1.7l-0.8-0.5h-0.85z" fill="#FEFFFE"/>
  <path d="m84.63 152.1v3.95l1.65 2.15h3.2v-1.65h-3.05v-1.1h3.25v-2.15l-1.35-1.2h-3.7zm1.7 1.3h1.95v1.1h-1.95v-1.1z" fill="#FEFFFE"/>
  <path d="m92.23 152.1v6.95h1.55v-5.65h1.95v5.65h1.55v-6.05l-1.25-1.3h-2.3l-1.5 0.4z" fill="#FEFFFE"/>
  <path d="m100.7 152.1h-0.95v5l1.45 2.05h2.8v1.4h1.95v-8.45h-5.25zm0.7 1.4h2.9v4.15h-2.9v-4.15z" fill="#FEFFFE"/>
  <path d="m108.9 151v1.3h1.55v-1.3h-1.55zm-0.05 1.6v6.45h1.65v-6.45h-1.65z" fill="#FEFFFE"/>
  <path d="m113.8 152.1v6.95h1.75v-5.65h2.1v2.85h1.65v-3.25l-1.15-0.9h-4.35z" fill="#FEFFFE"/>
  <path d="m122.8 152.1v4.4l1.35 1.7h3.05v-1.55h-2.65v-1.1h2.95v-2.45l-1.2-1h-3.5zm1.6 1.2h1.7v1.3h-1.7v-1.3z" fill="#FEFFFE"/>
  <path d="m130.3 152.1v4.3l1.35 1.8h3.45v-5.7l-1.15-0.8h-2.8l-0.85 0.4zm1.65 1.2h1.7v3.4h-1.7v-3.4z" fill="#FEFFFE"/>
  <path d="m138.1 152.1v6.95h1.55v-5.65h1.75v-1.3h-3.3z" fill="#FEFFFE"/>
  <path d="m143.9 150.4v1.1h1.25v-1.1h-1.25zm-0.05 1.7v6.95h1.55v-6.95h-1.55z" fill="#FEFFFE"/>
  <path d="m148.1 152.1v6.95h1.65v-5.45h2.2v5.45h1.65v-6.05l-1.2-0.9h-4.3z" fill="#FEFFFE"/>
  <path d="m157.4 151.7-1.5 1.05v4.55l0.85 1.1h3.35v0.95h-3.45v1.64h4.2l0.9-1.09v-8.2h-4.35zm0.4 1.7h2.35v3.55h-2.35v-3.55z" fill="#FEFFFE"/>
  <path d="m167.9 151.7v2.2l1.05 1.05h2.95v1.6h-4.15v1.75h4.75l1.15-1.2v-3.05l-1.4-1.25h-2.8v-1.1h3.95v-1.4h-4.45l-1.05 1.4z" fill="#FEFFFE"/>
  <path d="m176.2 150.4v9h1.65v-1.4h3.05l1.35-1.7v-3.9l-1.8-2h-4.25zm1.65 1.7h2.5v4.2h-2.5v-4.2z" fill="#FEFFFE"/>
  <path d="m185.1 152.1v4.6l1.5 1.6h3v-1.65h-2.75v-1.1h2.65v-2.45l-1.1-1h-3.3zm1.6 1.2h1.6v1.2h-1.6v-1.2z" fill="#FEFFFE"/>
  <path d="m192.2 152.1v4.5l1.45 1.6h2.9v-1.55h-2.65v-3.15h2.55v-1.4h-4.25z" fill="#FEFFFE"/>
  <path d="m199.5 149.8v1.1h1.65v-1.1h-1.65zm0.05 2.3v6.95h1.45v-6.95h-1.45z" fill="#FEFFFE"/>
  <path d="m203.8 152.1v1.3h3.8v1h-2.85l-1.05 0.9v2.5l1 0.85h2.45l0.75-0.85v1.2h1.45v-6.9h-5.55zm1.5 3.7h2.4v1.3h-2.4v-1.3z" fill="#FEFFFE"/>
  <path d="m214.5 149.8v9.25h1.55v-9.25h-1.55z" fill="#FEFFFE"/>
  <path d="m216.8 149.8v1.1h1.3v-1.1h-1.3zm-0.05 1.8v7.45h1.4v-7.45h-1.4z" fill="#FEFFFE"/>
  <path d="m221 152.6v2l1.05 0.9h2.2v1.1h-2.65v1.6h3.35l1.05-1.05v-2.15l-1.1-1h-1.95v-0.9h2.75v-1.4h-3.5l-1.2 0.9z" fill="#FEFFFE"/>
  <path d="m230.1 151.6v6.55l0.75 0.75h1.75v-1.2h-1.05v-6.1h-1.45z" fill="#FEFFFE"/>
</svg>