<svg xmlns="http://www.w3.org/2000/svg" width="500" height="500" fill="none" viewBox="0 0 500 500">
<!-- SVG created with Arrow, by QuiverAI (https://quiver.ai) -->
  <path d="m473.3 244.9c11.9-11.24 15.42-27.47 15.42-40.02 0-34.75-27.92-65.41-69-65.41h-99.17v34.42c-13.82-21.69-35.53-34.42-64.41-34.42h-85.42v36.22c-13.7-22.69-35.12-36.22-66.05-36.22h-98.66v219.4h42.32v-74.47h47.34l49.65 74.47h69.31v-72.34h41.51c43.05 0 73.62-35.2 74.61-70.46 0.55-19.95 11.23-32.1 31.14-32.1h55.13c19.21 0 25.67 9.45 25.67 21.08 0 12.02-8.93 21.17-24.74 21.17h-51.49v-30.27h-4.57c-13.66 0-19 9.79-19.54 22.91-1.11 21.68-9.6 39.98-21.8 52.35v87.66h102.6c41.17 0 71.89-29.3 71.89-64.22 0-20.58-7.75-38.85-21.71-49.76zm-370.3-3.51h-54.7v-57.59h54.3c23.24 0 32.02 14.35 32.02 29.48 0 15.3-10.93 28.11-31.62 28.11zm154 3.51h-45.83c-25.94 0-40.54 20.78-40.54 42.94v29.94l-29.2-40.59c9.46-4.01 16.69-11.01 23.67-18.9 12.04-13.66 23.2-22.39 49.53-22.39v-52.1h40.72c21.15 0 31.64 14.53 31.64 30.63 0 15.73-11.33 30.47-29.99 30.47zm166.8 71.28h-57.36v-50h56.41c16.27 0 26.76 10.83 26.76 25.45 0 14.53-10.01 24.55-25.81 24.55z" fill="#FFFFFF"/>
</svg>