<svg xmlns="http://www.w3.org/2000/svg" width="250" height="250" viewBox="0 0 250 250" fill="none">
<rect width="250" height="250" fill="#FEFFFE"/>
<path d="M 8.44,186.53 L 98.62,77.98 L 102.99,81.66 L 8.44,186.53 Z" fill="#E17F32"/>
<path d="M 236.28,62.09 L 98.58,216.81 L 103.21,210.01 L 239.91,65.78 L 236.28,62.09 Z" fill="#E17F32"/>
<path d="M 161.22,47.08 V 53.39 H 188.99 V 47.08 H 161.22 Z" fill="#216A92"/>
<path d="M 160.92,59.46 V 65.77 H 188.7 V 59.46 H 160.92 Z" fill="#216A92"/>
<path d="M 223.08,130.01 C 232.46,124.22 237.19,114.86 236.94,105.16 C 236.58,91.78 227.22,78.18 209.75,78.18 H 170.42 V 186.69 H 211.34 C 228.81,186.69 241.43,172.91 241.43,157.97 C 241.43,146.81 234.84,134.97 223.08,130.01 Z M 176.63,84.24 H 209.75 C 222.99,84.24 230.82,94.91 231.08,105.33 C 231.33,116.77 222.82,127.61 209.75,127.61 H 176.63 V 84.24 Z M 211.34,180.91 H 176.63 V 133.14 H 209.75 C 224.44,133.14 235.66,145.91 235.66,157.97 C 235.66,169.72 225.52,180.91 211.34,180.91 Z" fill="#216A92"/>
<path d="M 127.16,78.01 H 91.03 V 186.53 H 8.61 V 77.93 H 47.28 C 65.48,77.93 77.86,92.87 77.86,109.67 C 77.86,123.73 68.06,137.03 54.33,139.92 L 70.02,161.68 L 150.37,68.08 L 154.66,72.77 L 68.06,170.11 L 47.62,140.01 H 13.76 V 180.57 H 91.37 V 83.71 H 127.16 C 142.77,83.71 152.78,96.84 152.78,109.92 C 152.78,122.42 142.77,134.91 127.16,134.91 H 96.26 V 140.61 H 127.16 C 146.01,140.61 158.52,125.09 158.52,109.92 C 158.52,94.41 146.68,78.01 127.16,78.01 Z M 13.76,134.91 H 44.91 L 13.76,90.31 V 134.91 Z M 16.82,84.24 L 50.89,134.41 C 63.76,132.61 72.44,121.08 72.44,109.67 C 72.44,96.76 62.43,83.97 47.28,83.97 L 16.82,84.24 Z" fill="#216A92"/>
<path d="M 128.3,148.02 C 122.28,148.02 119.77,152.9 119.77,156.76 C 119.77,162.06 123.69,165.47 128.13,165.47 C 133.92,165.47 136.51,160.51 136.51,157.27 C 136.51,152.23 132.74,148.02 128.3,148.02 Z M 128.13,161.01 C 125.54,161.01 124.4,158.76 124.4,156.93 C 124.4,154.76 125.72,152.5 128.3,152.5 C 130.71,152.5 132.29,154.92 132.29,157.01 C 132.29,159.02 130.63,161.01 128.13,161.01 Z" fill="#216A92"/>
<path d="M 151.28,170.01 C 144.86,170.01 142.36,175.88 142.36,178.76 C 142.36,184.15 146.58,187.12 150.85,186.95 C 156.96,186.78 159.81,181.91 159.81,178.42 C 159.81,173.88 156.05,170.01 151.28,170.01 Z M 150.94,182.32 C 148.27,182.32 147.05,180.32 147.05,178.51 C 147.05,176.34 148.62,174.42 150.94,174.42 C 153.61,174.42 155.19,176.76 155.19,178.59 C 155.19,180.41 153.61,182.32 150.94,182.32 Z" fill="#216A92"/>
<path d="M 235.71,32 L 174.76,99.07 L 174.42,108.86 L 239.91,36.62 L 235.71,32 Z" fill="#216A92"/>
<path d="M 70.1,165.21 L 65.66,169.9 L 98.54,216.64 L 102.22,211.11 L 70.1,165.21 Z" fill="url(#paint0_linear_1246_2424)"/>
<path d="M 94.82,82.91 L 98.67,79.14 L 146.18,126.19 L 143.12,130.06 L 94.82,82.91 Z" fill="#E17F32"/>
<path d="M 190.05,170.92 L 213.98,142.01 L 217.66,145.07 L 193.48,173.42 L 190.05,170.92 Z" fill="#E17F32"/>
<path d="M 193.91,142.01 C 187.88,142.01 186.91,147.62 186.91,149.11 C 186.91,154.64 190.76,156.97 194.16,156.97 C 200.03,156.97 200.92,151.93 200.92,149.42 C 200.92,145.07 197.78,142.01 193.91,142.01 Z M 193.91,152.98 C 191.41,152.98 190.68,150.73 190.68,149.36 C 190.68,147.53 191.75,145.71 193.82,145.71 C 196.15,145.71 197.22,147.79 197.22,149.45 C 197.22,151.02 196.15,152.98 193.91,152.98 Z" fill="#E17F32"/>
<path d="M 213.56,159.05 C 208.42,159.95 206.92,164.07 207.35,167.48 C 207.86,171.6 211.09,173.26 214.15,173.17 C 219.21,173.09 221.03,168.97 220.78,166.09 C 220.44,161.73 217.21,158.41 213.56,159.05 Z M 213.73,169.61 C 211.4,169.36 210.83,167.36 210.92,165.92 C 211.01,164.09 212.32,162.52 213.98,162.61 C 216.14,162.78 217.12,164.78 217.03,166.35 C 216.95,168.01 215.72,169.84 213.73,169.61 Z" fill="#E17F32"/>
<defs>
<linearGradient id="paint0_linear_1246_2424" x1="71.7011" y1="168.006" x2="93.7219" y2="202.09" gradientUnits="userSpaceOnUse">
<stop stop-color="#595959"/>
<stop offset="0.11" stop-color="#655C5A"/>
<stop offset="0.31" stop-color="#88645D"/>
<stop offset="0.59" stop-color="#C17262"/>
<stop offset="0.71" stop-color="#E17B65"/>
</linearGradient>
</defs>
</svg>